<svg xmlns="http://www.w3.org/2000/svg" xmlns:xlink="http://www.w3.org/1999/xlink" version="1.1" x="0px" y="0px" viewBox="0 0 8503.94 11173.225" enable-background="new 0 0 8503.94 11338.58" xml:space="preserve">
  <g display="none"><rect display="inline" width="8503.94" height="11338.58"/>
</g><g display="none"><polygon display="inline" fill="#000000" stroke="#FFFFFF" stroke-width="125" stroke-linejoin="round" stroke-miterlimit="10" points="   7912.145,553.151 7912.145,10985.742 535.556,10985.742 536.194,2462.175 2442.933,553.79  "/>
<polygon display="inline" fill="#000000" stroke="#FFFFFF" stroke-width="60" stroke-linejoin="round" stroke-miterlimit="10" points="   5761.807,553.79 6602.229,1629.806 4909.021,2462.175  "/>
<polyline display="inline" fill="#000000" stroke="#FFFFFF" stroke-width="60" stroke-linejoin="round" stroke-miterlimit="10" points="   4909.021,2462.175 6095.5,5251.046 6602.229,1629.806  "/>
<path display="inline" fill="#000000" stroke="#FFFFFF" stroke-width="125" stroke-linejoin="round" stroke-miterlimit="10" d="   M8715.652,5769.447"/>
<polyline display="inline" fill="#000000" stroke="#FFFFFF" stroke-width="125" stroke-linejoin="round" stroke-miterlimit="10" points="   536.194,2462.175 2442.933,2462.175 2442.933,553.79  "/>
<polyline display="inline" fill="#000000" stroke="#FFFFFF" stroke-width="60" stroke-linejoin="round" stroke-miterlimit="10" points="   3351.764,3347.731 1881.021,4904.986 536.194,2462.175  "/>
<polyline display="inline" fill="#000000" stroke="#FFFFFF" stroke-width="60" stroke-linejoin="round" stroke-miterlimit="10" points="   3351.764,3347.731 2442.933,2462.175 4909.021,2462.175  "/>
<polyline display="inline" fill="#000000" stroke="#FFFFFF" stroke-width="60" stroke-linejoin="round" stroke-miterlimit="10" points="   7912.145,553.151 6602.229,1629.806 7912.145,3718.505 6095.5,5251.046 3351.764,3347.731 4909.021,2462.175 3920.286,553.79    2442.933,2462.175 1881.021,4904.986 535.556,5893.727 3129.299,7735.241 2016.973,9329.574 535.556,10985.742 3079.863,10071.128    5032.613,8785.772 4328.141,5988.41 6911.209,6968.973 6404.482,7970.066 7912.145,8575.666 6602.229,9947.535 7912.145,10985.742     "/>
<polygon display="inline" fill="#000000" stroke="#FFFFFF" stroke-width="60" stroke-linejoin="round" stroke-miterlimit="10" points="   6911.209,6968.973 7912.145,5930.803 6095.5,5251.046  "/>
<polyline display="inline" fill="#000000" stroke="#FFFFFF" stroke-width="60" stroke-linejoin="round" stroke-miterlimit="10" points="   6095.5,5251.046 4328.141,5988.41 3351.764,3347.731 2721.443,5988.41 1881.021,4904.986  "/>
<polyline display="inline" fill="#000000" stroke="#FFFFFF" stroke-width="60" stroke-linejoin="round" stroke-miterlimit="10" points="   2721.443,5988.41 4328.141,5988.41 3129.299,7735.241 2721.443,5988.41 535.556,5893.727  "/>
<polyline display="inline" fill="#000000" stroke="#FFFFFF" stroke-width="60" stroke-linejoin="round" stroke-miterlimit="10" points="   6602.229,9947.535 6404.482,7970.066 5032.613,8785.772 3129.299,7735.241 535.556,7735.241 2016.973,9329.574 3079.863,10071.128    5341.591,10985.742 6602.229,9947.535 5032.613,8785.772 5341.591,10985.742  "/>
<line display="inline" fill="#000000" stroke="#FFFFFF" stroke-width="60" stroke-linejoin="round" stroke-miterlimit="10" x1="2016.973" y1="9329.574" x2="5032.613" y2="8785.772"/>
<line display="inline" fill="#000000" stroke="#FFFFFF" stroke-width="60" stroke-linejoin="round" stroke-miterlimit="10" x1="3079.863" y1="10071.128" x2="3351.764" y2="10985.742"/>
</g><g display="none"><polygon display="inline" fill="none" stroke="#000000" stroke-width="110" stroke-linecap="round" stroke-linejoin="round" stroke-miterlimit="10" points="   1658.034,518.463 2901.386,602.285 4149.972,420.671 6114.547,4569.842 7362.809,4995.041 6319.8,5758.673 3977.098,5673.49    1589.014,5088.167  "/>
<polyline display="inline" fill="none" stroke="#000000" stroke-width="110" stroke-linecap="round" stroke-linejoin="round" stroke-miterlimit="10" points="   6114.547,4569.842 3908.149,4781.595 1589.014,5088.167 3398.757,6159.114 1141.132,9800.279 3904.742,6246.033 4736.672,6204.361     "/>
<polyline display="inline" fill="none" stroke="#000000" stroke-width="110" stroke-linecap="round" stroke-linejoin="round" stroke-miterlimit="10" points="   3398.757,6159.114 3904.742,6246.033 3362.403,10917.908 4305.184,6246.033 4982.951,9157.652 4736.672,6204.361  "/>
<polyline display="inline" fill="none" stroke="#000000" stroke-width="110" stroke-linecap="round" stroke-linejoin="round" stroke-miterlimit="10" points="   6319.8,5758.673 4736.672,6204.361 7362.809,10247.332 5116.01,6097.566  "/>
<polyline display="inline" fill="none" stroke="#000000" stroke-width="55" stroke-linecap="round" stroke-linejoin="round" stroke-miterlimit="10" points="   1589.014,5088.167 2245.936,4634.93 2951.327,4327.628 3957.258,4776.884 4060.916,5151.751 3050.506,5446.379 3711.661,5897.293    3398.757,6159.114 4320.207,5940.955 3977.098,5673.49 5242.107,5340.321 5891.627,5005.086 4060.916,5151.751 2886.021,4916.712    2245.936,4634.93 1613.791,3447.686 2951.327,4327.628 3516.074,3140.334 2155.143,2462.882 2811.647,1310.504 1658.034,518.463     "/>
<polyline display="inline" fill="none" stroke="#000000" stroke-width="55" stroke-linecap="round" stroke-linejoin="round" stroke-miterlimit="10" points="   3977.098,5673.49 3711.661,5897.293 4320.207,5940.955 4736.672,6204.361 4417.689,6809.58 4817.547,7332.916  "/>
<polyline display="inline" fill="none" stroke="#000000" stroke-width="55" stroke-linecap="round" stroke-linejoin="round" stroke-miterlimit="10" points="   3711.661,5897.293 2746.608,5758.673 3050.506,5446.379  "/>
<polyline display="inline" fill="none" stroke="#000000" stroke-width="55" stroke-linecap="round" stroke-linejoin="round" stroke-miterlimit="10" points="   6319.8,5758.673 6408.27,5213.888 7362.809,4995.041  "/>
<polyline display="inline" fill="none" stroke="#000000" stroke-width="55" stroke-linecap="round" stroke-linejoin="round" stroke-miterlimit="10" points="   6408.27,5213.888 6645.062,4750.554 5891.627,5005.086 4904.125,4686.007 4060.916,5151.751 5242.107,5340.321 6319.8,5758.673    4320.207,5940.955  "/>
<polyline display="inline" fill="none" stroke="#000000" stroke-width="55" stroke-linecap="round" stroke-linejoin="round" stroke-miterlimit="10" points="   2901.386,602.285 2811.647,1310.504 4149.972,420.671 3223.37,1824.111 4210.503,1749.61 4825.133,3323.435 4285.003,3905.47    4904.125,4686.007 5352.989,4184.849 6114.547,4569.842 5891.627,5005.086 6408.27,5213.888 5242.107,5340.321  "/>
<polyline display="inline" fill="none" stroke="#000000" stroke-width="55" stroke-linecap="round" stroke-linejoin="round" stroke-miterlimit="10" points="   2951.327,4327.628 4285.003,3905.47 3498.544,3131.608 1613.791,3447.686 2155.143,2462.882 1640.069,1707.844 2811.647,1310.504    3223.37,1824.111  "/>
<polyline display="inline" fill="none" stroke="#000000" stroke-width="55" stroke-linecap="round" stroke-linejoin="round" stroke-miterlimit="10" points="   3957.258,4776.884 4285.003,3905.47 4210.503,1749.61 3498.544,3131.608 3223.37,1824.111 2155.143,2462.882  "/>
<polygon display="inline" fill="none" stroke="#000000" stroke-width="55" stroke-linecap="round" stroke-linejoin="round" stroke-miterlimit="10" points="   5597.412,3477.651 5352.989,4184.849 4825.133,3323.435  "/>
<polyline display="inline" fill="none" stroke="#000000" stroke-width="55" stroke-linecap="round" stroke-linejoin="round" stroke-miterlimit="10" points="   4904.125,4686.007 4825.133,3323.435 4904.125,2013.441 4210.503,1749.61 4149.972,420.671  "/>
<polyline display="inline" fill="none" stroke="#000000" stroke-width="55" stroke-linecap="round" stroke-linejoin="round" stroke-miterlimit="10" points="   3398.757,6159.114 3432.903,6935.39 2775.226,7298.271 2804.182,7661.451  "/>
<polyline display="inline" fill="none" stroke="#000000" stroke-width="55" stroke-linecap="round" stroke-linejoin="round" stroke-miterlimit="10" points="   4323.682,6225.048 3865.441,6619.617 4194.855,6849.332 3764.071,7583.174  "/>
<polyline display="inline" fill="none" stroke="#000000" stroke-width="55" stroke-linecap="round" stroke-linejoin="round" stroke-miterlimit="10" points="   4736.672,6204.361 5446.402,6778.877 5365.971,7289.01 5805.928,7520.263  "/>
</g><g><polygon fill="none" stroke="#000000" stroke-width="120" stroke-linecap="round" stroke-linejoin="round" stroke-miterlimit="10" points="   4358.488,2158.639 5023.744,1950.244 5961.525,363.242 6330.223,427.361 6009.619,1918.182 6137.857,2543.365 5889.391,3609.387    6242.051,4675.406 8054.771,10145.012 6311.404,10945.574 4358.488,10945.574 2405.572,10945.574 449.17,10145.012    2466.904,4675.412 2827.586,3609.387 2579.117,2543.365 2707.357,1918.182 2386.754,427.361 2755.449,363.242 3693.23,1950.244     "/>
<path fill="none" stroke="#000000" stroke-width="61" stroke-linejoin="round" stroke-miterlimit="10" d="M5071.838,3080.383   "/>
<path fill="none" stroke="#000000" stroke-width="61" stroke-linejoin="round" stroke-miterlimit="10" d="M5023.744,1950.244   "/>
<path fill="none" stroke="#000000" stroke-width="61" stroke-linejoin="round" stroke-miterlimit="10" d="M3789.408,5781.498   "/>
<polyline fill="none" stroke="#000000" stroke-width="61" stroke-linejoin="round" stroke-miterlimit="10" points="   4142.072,3344.883 5052.336,4031.273 3693.23,4579.23 5910.891,5281.705  "/>
<line fill="none" stroke="#000000" stroke-width="61" stroke-linejoin="round" stroke-miterlimit="10" x1="2289.627" y1="5155.965" x2="3789.408" y2="5781.498"/>
<line fill="none" stroke="#000000" stroke-width="61" stroke-linejoin="round" stroke-miterlimit="10" x1="2369.789" y1="9364.301" x2="2018.047" y2="8410.473"/>
<polyline fill="none" stroke="#000000" stroke-width="61" stroke-linejoin="round" stroke-miterlimit="10" points="   2369.789,9364.301 3653.148,10165.859 2234.459,10145.012  "/>
<line fill="none" stroke="#000000" stroke-width="61" stroke-linejoin="round" stroke-miterlimit="10" x1="2907.736" y1="7544.838" x2="2018.047" y2="8410.473"/>
<path fill="none" stroke="#000000" stroke-width="61" stroke-linejoin="round" stroke-miterlimit="10" d="M1746.42,6628.473"/>
<polyline fill="none" stroke="#000000" stroke-width="61" stroke-linejoin="round" stroke-miterlimit="10" points="   4061.922,6687.213 5394.334,7707.748 6035.582,6938.252 6666.141,8455.871 7591.664,8747.656 6869.201,9674.238 5910.891,9364.301    6311.404,10945.574 6869.201,9674.238 8054.771,10145.012  "/>
<line fill="none" stroke="#000000" stroke-width="61" stroke-linejoin="round" stroke-miterlimit="10" x1="6666.141" y1="8455.871" x2="6869.201" y2="9674.238"/>
<polyline fill="none" stroke="#000000" stroke-width="61" stroke-linejoin="round" stroke-miterlimit="10" points="   5394.334,7707.748 5910.891,9364.301 6666.141,8477.246  "/>
<line fill="none" stroke="#000000" stroke-width="61" stroke-linejoin="round" stroke-miterlimit="10" x1="3653.148" y1="10165.859" x2="4411.096" y2="8918.992"/>
<polyline fill="none" stroke="#000000" stroke-width="61" stroke-linejoin="round" stroke-miterlimit="10" points="   5394.334,10945.574 5910.891,9364.301 4411.09,8039.059  "/>
<polyline fill="none" stroke="#000000" stroke-width="61" stroke-linejoin="round" stroke-miterlimit="10" points="   3789.408,5781.498 3693.23,4579.23 6140.014,4366.963 5910.891,5281.705 6608.627,5781.498  "/>
<polyline fill="none" stroke="#000000" stroke-width="61" stroke-linejoin="round" stroke-miterlimit="10" points="   2907.736,7544.838 3764.5,5781.498 5910.891,5281.705 6035.582,6938.252 4061.922,6687.213 4411.09,8039.059 2907.736,7544.838    2289.627,5155.965 3693.23,4579.23  "/>
<line fill="none" stroke="#000000" stroke-width="61" stroke-linejoin="round" stroke-miterlimit="10" x1="5052.336" y1="4031.273" x2="6140.014" y2="4366.963"/>
<polyline fill="none" stroke="#000000" stroke-width="61" stroke-linejoin="round" stroke-miterlimit="10" points="   2827.586,3609.387 3452.77,2727.719 2579.117,2543.365 3693.23,1950.244  "/>
<polyline fill="none" stroke="#000000" stroke-width="61" stroke-linejoin="round" stroke-miterlimit="10" points="   3789.408,5781.498 4061.922,6687.213 2907.736,7544.838 1746.42,6628.473 2018.047,8410.473 1048.396,8520.652  "/>
<path fill="none" stroke="#000000" stroke-width="61" stroke-linejoin="round" stroke-miterlimit="10" d="M2289.627,5155.965   "/>
<polygon fill="none" stroke="#000000" stroke-width="61" stroke-linejoin="round" stroke-miterlimit="10" points="   3693.23,4579.23 4142.072,3344.883 2827.586,3609.387  "/>
<polyline fill="none" stroke="#000000" stroke-width="61" stroke-linejoin="round" stroke-miterlimit="10" points="   4142.072,3344.883 5071.838,3080.383 5052.336,4031.273 5889.391,3609.387 5071.838,3080.383 6137.857,2543.365 5023.744,1950.244     "/>
<polyline fill="none" stroke="#000000" stroke-width="61" stroke-linejoin="round" stroke-miterlimit="10" points="   2755.449,363.242 2707.357,1918.182 3693.23,1950.244 3452.77,2727.719 4142.072,3344.883 4358.488,2158.639 5071.838,3080.383    5023.744,1950.244 6009.619,1918.182  "/>
<polyline fill="none" stroke="#000000" stroke-width="61" stroke-linejoin="round" stroke-miterlimit="10" points="   6012.74,1903.658 5565.025,1034.234 6330.223,427.361  "/>
<polyline fill="none" stroke="#000000" stroke-width="61" stroke-linejoin="round" stroke-miterlimit="10" points="   4411.096,8918.992 2369.789,9364.301 1048.396,8520.652  "/>
<polyline fill="none" stroke="#000000" stroke-width="61" stroke-linejoin="round" stroke-miterlimit="10" points="   5910.891,9364.301 4411.096,8918.992 4411.09,8039.059 5394.334,7707.748 6666.141,8455.871 6948.951,6808.365 6035.582,6938.252    6608.627,5781.498  "/>
<polyline fill="none" stroke="#000000" stroke-width="61" stroke-linejoin="round" stroke-miterlimit="10" points="   2234.459,10145.012 2369.789,9364.301 449.17,10145.012 2234.459,10145.012 2405.572,10945.574 3653.148,10165.859    5394.334,10975.34 4411.096,8918.992 2018.047,8410.473 4411.09,8039.059  "/>
<line fill="none" stroke="#000000" stroke-width="61" stroke-linejoin="round" stroke-miterlimit="10" x1="5910.891" y1="5281.705" x2="4061.922" y2="6687.213"/>
</g>
<!-- <text x="0" y="11353.58" fill="#000000" font-size="5px" font-weight="bold" font-family="'Helvetica Neue', Helvetica, Arial-Unicode, Arial, Sans-serif">Created by Bruno Bosse</text><text x="0" y="11358.58" fill="#000000" font-size="5px" font-weight="bold" font-family="'Helvetica Neue', Helvetica, Arial-Unicode, Arial, Sans-serif">from the Noun Project</text> -->
</svg>