<svg xmlns="http://www.w3.org/2000/svg" xmlns:xlink="http://www.w3.org/1999/xlink" version="1.0" x="0px" y="0px" viewBox="0 0 100 125" enable-background="new 0 0 100 100" xml:space="preserve"><path d="M93.8306046,33.2813911l1.3695755-1.8082256l1.3348694-0.9674568l1.3109131-1.1992149l-0.3433609-0.9698238  l-1.381752-0.8918171l-0.9423218-2.9428616l-0.9181671-0.446907l-0.8693237,0.6716614l-0.6984863-0.4428463L92.018898,26.357542  l0.0347061,1.8277798l-0.2490463,1.1158276l-0.5018921,0.5330296l-0.519516,0.2226963l-0.0048904,0.5706673l-2.7996368,0.7457752  l-2.3722916,0.5987473l-0.6228485,0.5814781l-1.2755356,1.8425598l-0.1093979,0.1058159l0.1022263,0.0290565l0.2338943,0.27631  l0.2650757,0.779644l-0.9932709,0.9387016l-1.3345947,0.0906601l-1.2939301,0.171711l-0.860527,0.4793816l0.3708267,0.6462593  l0.0608902,0.1758385l-1.134552,1.5428352l-1.1169968,0.8499413l-0.7959747,0.4392967l-0.8871841,0.7738914l-1.1383896,0.4738007  l-0.8254166,0.0096092l-1.0059814-0.2880745l0.4137878-0.86483l0.2535706-0.8360023l0.5832062-1.3186607l0.0282745-0.0282135  l-0.0264511-0.026825l0.0081863-0.0019608l-0.2183914-0.899395l-0.4994431-1.2906876l-0.7068787-0.1536484l-0.8707428,1.1310501  l-0.2370682,0.0180664l-0.1330795-0.4630775l0.7551117-1.004837l0.0030518-1.0607567l-0.281929-1.0428238l-1.3103104-0.7277489  l-1.4841156-0.3005981l-0.1228638,0.9253387l-0.3212357,0.2697792l-0.1133194,0.8589706l-0.1767883-0.5518074l-0.6648636,0.7037315  l-0.321167,0.8089371l-0.3074951,1.1606827l0.0192795,0.9836273l0.689827,1.3271866l0.1111603,1.4458237l-0.5470734,1.1337585  l-0.2965698,0.3328743l-0.4035416,0.2746468l-0.5224457,0.0618057l-0.1334305-0.1083488l-0.5463791-1.1091995l-0.0634613-0.5652504  l-0.0058899-0.5523033l-0.3030319-1.0819664l0.1926193-1.2817917l0.2183914-1.5887794l0.6980133-1.9082222l-0.3828659,0.0508423  l-1.0058517,1.5116196l-0.1427536-0.1457329l0.5099487-0.8002663l0.0028839,0.0008011l0.0194931-0.037426l0.0488434-0.0863495  l-0.0033798-0.000946l0.7390747-1.419136l1.0204697-0.3039131l1.1673431-0.5810699l1.2400131,0.0875816l0.0654907,0.0048714  l1.4838486-0.4181862l-0.9417801-0.8354588l0.2066269-0.3050976l-0.7078247-0.0040245l-0.0663757,0.229084l-0.3958588-0.0258102  L69.049118,30.878767l-1.5451431,0.3832073l-1.3049622,0.6333008l-1.1523972-0.7394867l-0.8411102-0.1962395l0.4271851-1.3509007  l-1.4587479,0.9728699l-1.180336,0.8217583l-1.1245117,0.6330128l-0.9900322-0.7164001l-1.4774513,0.5287209l-0.0061913-0.2069111  l0.9811554-0.982172l1.0346756-0.9609966l1.50103-0.8449631l0.137413-0.1306458h-0.1629868l-1.9165764-0.4729538  l-1.2076721,0.3589859l-1.4782982-0.632555l-1.5743065-0.3184605l-1.0376472-0.1144409l-0.4406509-0.3509026l-0.2899055-1.2814178  l-0.6296158,0.0221252l0.00494,0.8740559l-3.0344391-0.0086765l-5.0979958-0.1688538l-5.1808319-0.3695755l-4.4566917-0.4690304  l-4.4402409-0.6153698l-4.4175758-0.7605972l-4.3899498-0.9060326l-1.438055-0.327898l-4.3177567-1.096199l-4.3767786-1.270998  l0.1467142,2.0963745l-0.2941713,1.8223343l-0.4138565,0.3575306l-0.1263828-1.7994652l-2.0206003-1.0957336l-0.4462633,2.2487736  l-0.1681137,1.9191246L7.5415139,29.515316l-0.8806195,2.3775578l-1.2255669,2.1537151l0.1253295,1.3725777l-0.5249438,1.8290367  l-0.9373155,1.6765671l0.5063424,1.458271l-0.321166,1.8142815l0.7499065,2.2128487l0.5228848,0.9178658l-0.2037482,0.4661865  l0.557694,3.4337807l0.0012856,0.0078468l1.0867014,2.6473045l-0.1135278,1.2551346l0.3885183,0.513073l1.3749533,0.549778  l0.6052227,0.8910713l0.7135067,0.2706604l1.5999794,1.766922l0.4982576,1.2966423l0.0354185,0.9058533l2.2105799,0.3259048  l2.2986622,0.2666054l-0.2363853,0.3523178l2.679678,1.6848526l4.0501671,2.3423424l0.0112972,0.0065613l3.7391357,0.5707474  l-0.0001564,0.001091l0.070118,0.0095901l0.0670223,0.010231l0.0001526-0.0010376l1.5376492,0.2103653l0.149353-0.9199295  l3.1986294,0.4021378l0.5897369,0.8501892l0.914856,0.8244629l1.0420799,1.0988846l0.5261345,1.2241135l0.3764763,1.3035355  l0.9776382,0.7886124l1.6539345,0.8486786l1.3961983-1.7106247l1.5602303,0.0620346l1.3132133,0.9621506l0.908123,1.5869522  l0.6315422,1.3638916l1.1398811,1.3511734l0.3845596,1.5979843l0.5544777,1.1300659l1.6179085,0.7699356l1.4745789,0.5397644  l0.927639-0.0645447l-0.4216347-0.8661423l-0.0847054-1.0833206l0.0429611-1.5571823l0.4697418-0.9944229l1.0959015-1.059906  l1.9875488-0.9735794l0.0094719-0.0046692l1.794529-1.6958847l1.6561241-0.5001755l1.7002525,0.0186005l1.5047531,0.2354431  l1.1590958,0.4129105l1.7212524,0.3759689l0.0106239,0.0023651l2.8446236-0.2791519l-0.7520752-1.3842545l0.1478119-0.8777008  l1.0890198-0.0447998l1.1551743-0.6022186l1.6472092,0.0897827l-0.0110703,0.0316696l0.1129227-0.0261154l0.0422134,0.0022964  l0.0045853-0.0131226l2.1205139-0.4904404l1.9250336,0.7930679l0.5531616,0.6072159l2.0991211-1.2287064l1.1910934,0.6802139  l1.4533997,1.1540909l0.6236572,1.1607208l-0.1386948,1.414566l0.3504639,1.0838547l1.244545,1.5098953l1.3930511,1.7913437  l0.8575439,0.3934937l0.4945755,0.9531479l1.125061,0.1108932l0.8460464-0.5825272l0.0817261-2.0766525l-0.4436874-2.0061569  l-0.0024414-0.0108261l-1.2720795-2.1481705l-0.1519547-0.8789215l-1.1792603-1.5395279l-1.0394745-1.7027206l-0.5087509-1.5669174  l0.1565323-1.3107224l0.5503693-1.7424126l1.7592926-1.4556503l1.3860855-1.6815376l0.0098114-0.0119781l0.4251328-1.6723595  l0.6073074-0.2503738l1.3475189-1.433918l1.6102905-1.2343597l0.7990952-1.9223633l-0.7285614-2.0841522l0.0225677-0.005085  L88.307518,50.862812l-0.0156937-0.0449104l-0.0117798,0.002655L87.4972,49.6168251l-0.6091843-1.044281l-0.973938-0.7108078  l0.8379517,0.3046341l-0.4648743-2.0017929l0.064003-0.4772186l0.3533707,1.3150101l1.0983887,0.8369751l-0.2670212,1.6297188  l0.304184,0.0874481l0.5998154-2.0308266l0.5056305-0.9326057l-0.1702576-0.2092857l-0.7211227-1.0034943L87.4704742,44.35709  l0.0302429-0.01231l0.5242004,0.4646339l0.3828735,0.0245934l0.3082428,0.6319122l0.8936081-2.1294594l-0.1027679-1.7218971  l-0.4152832,0.0065651l0.1847229-0.7187881l0.0371933,0.4291496l1.1336594-0.290081l2.2679825-1.3311768l-0.7420578-0.3482628  L90.20327,40.0658569l0.7019958-0.5117455l0.9174271-0.3556366l0.5906219-0.2590408l-0.0008621,0.022953l0.1072388-0.0696106  l0.0345688-0.0151634l0.0002823-0.0074577l1.0496216-0.6813469l0.7922516-0.1790276l1.0346069-0.6959152l-0.0575027-0.7312012  l-0.86026-0.4655457l0.4645309,0.8597145l-0.5528183,0.1134262l-0.8218994-0.9496307l-0.3017044-1.1181908l0.1257858-0.542305  L93.8306046,33.2813911z M94.8561478,36.4602089l0.38517,0.2084465l0.0451889,0.5753899l-0.9459686,0.6363106l-0.7229309,0.1633492  l-0.1240005-0.2863846l-0.3266449-0.1782417l-0.2947769-0.5664558l-0.7267914,0.2280693l-1.5160294,0.3521233l-1.1686096,0.2612343  l-0.030632-1.4473648l1.2395477-0.2868614l0.0008926,0.0009155l0.0376358-0.0098343l0.1195984-0.0276794l-0.0027847-0.0028496  l1.8540802-0.4846191l0.112175-0.2755966l0.2655487-0.2159958l0.1210403-0.0077972l0.2996521,1.1109734l0.8957748,1.0349426  l0.8150558-0.1672134L94.8561478,36.4602089z M93.4899521,38.0977364l-0.9290619,0.6030922l0.008255-0.2215424l-0.320488-1.1257706  l0.554245-0.1739159l0.2606812,0.5008965l0.3217773,0.175602L93.4899521,38.0977364z M89.4374542,41.1567307l-0.0571747-0.6589203  l0.0125198-0.0487366l-0.0173187-0.0065231v-0.0000038l-0.0256577-0.0096664l-1.3738174-0.5176201l0.0079117-0.006424  l-0.1232147-0.0370216l-0.0348969-0.0131454l-0.0024033,0.0019455l-0.2690353-0.0808334l-0.2888947-0.0787849l-0.1571655-0.2542191  L87.094574,39.177639l-0.2728653-0.1721878l-0.4585037-0.2751274l-2.2468796,0.4969749l-2.3876038,0.4949074l-2.4970703,0.473259  l-0.090889-0.5009193l1.1631775-1.5815887l-0.0811234-0.2341232l-0.0019608-0.0125504l-0.3134537-0.5461273l0.7149277-0.3982582  l1.2633514-0.1678238l1.3797913-0.0935707l1.0940781-1.0339966l-0.3021545-0.8887024l-0.2296295-0.2712708l1.2557755-1.8168182  l0.5912552-0.5520096l2.2678528-0.5724106l0.0670471,0.3725166l0.008728,0.292347l0.2058105,0.6573181l0.1661682,0.3052673  l-0.0434418,0.4910164l0.2900467,0.5345879l-0.0209732,0.3455582l0.0886993,0.1320992l0.209938-0.0376854l0.3758316,1.7416878  l0.0322876,1.5248795l-0.010437,0.0023346l0.0118103,0.0605011l0.0016556,0.0784645l0.0130768-0.0029221l0.3200684,1.640686  l0.1374741,0.1189766l-0.2869339,0.2850723l0.1845016,0.3690987l0.0590744-0.0430641l2.2154083-0.8811264l0.4499207,0.2111244  l-2.0150909,1.1855812L89.4374542,41.1567307z M88.4969559,44.7009277l-0.4157486-0.0267601l-0.5530243-0.4901733  l-0.1152191,0.0469208l-0.1052704-0.3076706l0.1735764-0.2508392l0.3012314-0.2822609l0.0907288-0.1673813l0.3251572-0.3767815  l0.1981049-0.3560753l-0.6934128-0.4636536l-0.0897141-0.2425804l-0.1894379-0.0247307l-0.0596085-0.2835464l0.136528-0.3243828  l-0.1475525-0.2510376l0.1963348-0.2273293l0.1710358-0.5502167l0.1307144-0.1060524l1.1822891,0.4454422l0.1940536,0.0731163  l-0.3155518,1.2275925l0.4642563-0.0073051l0.0930328,1.557354l-0.7629013,1.8179016L88.4969559,44.7009277z M87.6925888,49.3699455  l0.2517319-1.5367241l0.0826111-0.1468124l0.2439194-0.0776329L87.74617,49.3853378L87.6925888,49.3699455z M88.3256531,47.4456215  l-0.3654251,0.1166153l-0.0271835,0.0086517l-0.0000229,0.0000305l-0.0001144,0.0000381l-0.0159836,0.0284271l-0.060318,0.1065903  l-1.0305634-0.7851982L86.39534,45.3178177L86.259758,45.32658l-0.113327,0.844696l0.4127731,1.7775764l-1.033226-0.3756294  l-0.1884537-0.3264427l-0.2957916,0.1747551l-0.164978-0.046196l0.0340958-0.1924438l0.0452957-0.2553558l0.0010681-0.0011406  l0.2545395-0.2726631l-0.0070343-0.1882057l0.2095337-0.2805214l-0.3766479-0.2562828l-0.1223221,0.1409607l-0.3219147-0.1548996  l-0.3297577-0.051857l0.0548706-0.1888809l0.016037-0.0544472l-0.0580978-0.0261879l-0.2674637-0.1220474L83.76194,45.450222  l-0.1721191-0.2283058l-0.2939682-0.295929l-0.5105209-0.0630417l1.1117859-0.2331619l1.4513016-0.2957954l1.4228897-0.320488  l0.7551804,2.7576866l1.1672134-0.2681236l0.0857925,0.1055107L88.3256531,47.4456215z M80.9717789,62.7097816l-0.5345535,1.6926308  l-0.1550064,1.2873077l-0.3453827,0.0197525L79.51371,65.6008835l-0.2880859,0.1472244l0.1180649,0.7934113l-0.1319351,0.1437683  l-0.177597-0.3215714l-3.2345963,0.1173172l-1.920845,0.1451874l-0.3432159-0.530632l-0.1276016-0.2530365l-0.1465454-0.2550659  l0.0075073-0.3558044v-0.4148712l-0.1538467-0.4081726l0.0198898-0.6932068l0.2775269-0.4499168l-0.233757-0.4136543  l-0.3528976-0.6618195l-0.7052536-2.1597366l-0.778862-2.6350899L72.6791,57.2552986l0.9739838-0.1460686l1.3864746-0.1778412  l0.7217407-0.092556l-0.0644455,0.0786552l-0.272789,0.535099l0.6074219,0.3316536l0.3296204,0.088562l0.4334793,0.6351585  l0.2867966,0.3722496l0.7231827,0.4286041l0.1700211,0.2570267l0.4959259,0.2927513l0.3013382,0.496666l0.6647949,0.3514786  l0.2057495,0.4643288l0.1405182,0.2139969L79.7388,61.5841103l0.4227219,0.20121l0.2361221,0.357769l0.0707016,0.452961  l0.2304382,0.0654221L80.9717789,62.7097816z M83.0478897,78.0196075L82.56604,77.09095l-0.8699951-0.3991699l-1.3735657-1.7661819  l-1.2289886-1.4910812l-0.3334122-1.0312271l0.1400528-1.4278259l-0.6572189-1.2230988l-1.4798508-1.1750565l-1.2739792-0.7285309  l-2.0715103,1.2124786l-0.498497-0.547142l-1.9945831-0.8217545l-2.0783463,0.4806976l0.0711746-0.2035751l0.0680618-0.5008011  l-0.4955826-0.5074234l0.0077744-0.0912018l1.0392075-0.2224503l3.903656-0.4438324l0.3666992,0.5668259l2.0001373-0.1512756  l3.1467819-0.1140671l0.2295532,0.4157486l0.3068924-0.3345642l-0.1131897-0.7602615l0.152771-0.0780716l0.393219,0.1008759  l0.3714371-0.0212402l0.4994431,1.5383759l1.0523987,1.7275391l1.1649094,1.5214005l0.1504669,0.8703995L84.43573,73.636467  l0.4375381,1.9778748l-0.0783463,1.9893799l-0.7471313,0.5144653L83.0478897,78.0196075z M68.6910095,68.1968765  l-1.6469879-0.0898438l-0.3415756-3.3697128l0.0315933-3.6092186l0.0810547-2.9303436l0.0003357-0.0143433l-0.1397705-0.3491592  l2.2204132-0.2059631l2.3052673-0.2189369l0.7869186,2.6620865l0.7076874,2.1673813l0.3612823,0.6797447l0.194313,0.3438339  l-0.2541199,0.4118919l-0.0216522,0.7576218l0.1545334,0.410202v0.3880768l-0.0083237,0.3928833l0.1639328,0.2851715  l0.0827408,0.1642685l-3.8541946,0.4385529l-1.1462402,0.2449188l-0.0218506,0.256691l0.4927444,0.5045853l-0.0549393,0.4131775  L68.6910095,68.1968765z M66.9073715,68.1332779l-1.1030045,0.5749435l-1.0570679,0.0435028l-0.0395813-0.1673126  l-0.1011429-0.3889618l-0.2809143-0.2495193l-0.1249619-0.2413254l0.0966873-0.352356l0.0380859-0.4708939l-1.907444,0.1163712  l-1.6596184,0.0191498l-0.0888329-0.4698105l0.2129822-0.2505341l0.1515541-0.5650024l0.1444435-0.4658127l0.3566895-0.3746872  l0.0650177-0.4283295l0.2791519-0.2704239l-0.2846336-0.3969421l0.0629883-0.2814522l-0.2952538-0.4399719l0.16082-0.3464012  l-0.1530151-0.1306915l0.0643845-0.4282227l-0.2497864-0.5823212l0.0140038-0.5054626l0.3618965-0.7976723l0.1670418-0.4596596  l0.2959976-0.3083115l0.2206993-0.1491814l0.2232666-0.6488953l-0.0000038-0.000061l0.0000038-0.0000076l-0.0117722-0.2966728  l0.3126411-0.18396l0.0207596-0.1571884l1.7571182-0.1225739l1.9744186-0.1108208l0.1452026,0.3625069l-0.080719,2.9172859  l-0.0315933,3.6142845L66.9073715,68.1332779z M62.5199051,71.2912827l-1.6977768-0.3703461l-1.1610565-0.4135895  L58.13237,70.2669678l-1.6860657-0.0192184l-0.1304474-0.2267151l0.1689377-0.2954559l0.3011398-0.3207626l-0.0066986-0.5078278  l-0.1382217-0.1382904l0.1441765-0.4997864l0.1161652-0.2428131l0.1766548-0.8737259l-0.192688-0.3232574l-0.2341576-0.5015411  l-0.1765175-0.5148697l-0.1223221-0.3659515l-0.3133202-0.2409973l-0.1616974-2.3030968l1.7622528-0.0428963l2.0625114-0.1539879  l1.5784798-0.0019226l0.0828323,0.0707321l-0.149456,0.3217735l0.3056755,0.4553986l-0.06353,0.283886l0.2510719,0.3502617  l-0.2269211,0.2198181l-0.0654221,0.4314423l-0.3489723,0.3665619L60.9110298,65.6931l-0.1441765,0.5373993l-0.235714,0.2771912  l0.1226616,0.6490936l1.7792358-0.0206299l1.7518311-0.1067657l-0.0228653,0.2925491l-0.1091995,0.3982239l0.1616364,0.3122406  l0.2685928,0.2386932l0.0901871,0.3467407l0.0491791,0.2078247l-0.1627045,0.9663544l0.6750793,1.2427139L62.5199051,71.2912827z   M56.3023949,70.2755585l-1.6142883,0.4875336l-1.8029175,1.7038651l-1.987957,0.9737854l-1.1396065,1.0975266l-0.4930153,1.0435333  l-0.0438423,1.5899353l-0.0000687,0.0036469l0.0872803,1.116745l0.3432884,0.7052536l-0.6932793,0.048172l-1.4408836-0.5271149  l-1.5684509-0.746727l-0.5246086-1.0655212l-0.39048-1.6224747l-1.145092-1.3534775l-0.6303215-1.3606415l-0.9254761-1.6178055  l-1.3710976-1.0046387l-1.6715927-0.0664368l-1.369133,1.6774139l-1.5359764-0.7865753l-0.9380951-0.7566757l-0.3655128-1.2657852  l-0.5405464-1.2588882l-1.0630188-1.1207352l-0.9022713-0.8109283l-0.6005745-0.8638229l-0.1640816-0.362793l0.001049-0.1016235  l1.6434822,0.185173l3.4443665,0.3361893l1.846386,0.1519547l0.7788658-10.0846138l1.7377281,0.1245728l1.8093414,0.108757  l1.7398567,0.0865326l-0.189537,4.3081741l0.4656448,0.2795563l0.3214722,0.2128487l0.4727173-0.1255035l0.2476921,0.4529648  l0.6509552,0.18964l0.5618248,0.1396446l0.8340034-0.0292969l0.2405853,0.5639191l0.5955162-0.2241478l0.4890213,0.3372002  l0.5708847,0.1739464l0.2691383-0.2915993l0.256691,0.345253l0.6501122-0.1218529l0.2783394,0.1131897l0.3375397-0.0997925  l0.3202858-0.1802368l0.3695412-0.003788l0.6725082,0.021244l0.4114189-0.1502647l0.4979553,0.2199516l0.7994995,0.4211617  l0.11549,0.1647453l0.3980904-0.0403252h0.36203l-0.073288,1.1418915l-0.0091171,0.0002213l0.0047569,0.0676994  l-0.0045547,0.0709305l0.0095215-0.0002327l0.1665916,2.3715973l0.3291473,0.2531738l0.2869339,0.8452301l0.2399788,0.5148697  l0.1704941,0.2866592l-0.1591301,0.7965927l-0.1148796,0.240181l-0.1724586,0.5945663l0.1562195,0.1562881l0.0052109,0.3955231  L56.37817,69.636673l-0.2221184,0.384491l0.0000229,0.0000381l-0.0000229,0.0000305L56.3023949,70.2755585z M31.8002224,64.4448395  l-3.2376766-0.4070282l-0.1490822,0.9184418l-1.4027596-0.1919403l1.7975121-12.4555092l0.0000916,0.0000153l0.0002251-0.0015793  l2.7209282,0.3693924l2.8220253,0.3401451l3.0421486,0.3055038l2.0763168,0.1769981l-0.0568924,0.7600632l-0.0212021,0.2832108  L38.6186638,64.5541l-1.7065735-0.1404572l-3.4423027-0.3359756L31.6748199,63.87537l-0.0028744,0.2857857L31.8002224,64.4448395z   M12.202755,58.3981552l-0.5157137-1.3422394l-1.639761-1.8107643l-0.7037649-0.2670059l-0.6044788-0.8899231l-1.3785381-0.5511971  l-0.3329048-0.4396706l0.1117687-1.2354431l-1.0935349-2.6639481L5.495914,45.8122902l0.2153172-0.4925079l-0.5486617-0.9603882  l-0.7363753-2.1728935l0.3213015-1.8148232l-0.4978175-1.4335785l0.9108953-1.6293068l0.51754-1.7965889l6.6332641,1.9749641  l-1.746727,6.4531288l2.479516,3.7923927l2.452589,3.6309662l2.3838272,3.4169464l-0.0035973,0.186821l0.0385971,0.3263741  l0.0701256,0.4160881l0.152668,0.4724121l0.2312851,0.4425087l-0.6097908,0.3193398l-0.3572598,0.9869766l-0.4754581,0.4410553  l0.015934,0.4367905l-0.0031815,0.366497l0.2486401,0.3487701l-0.2396412,0.3219109l-0.2494507-0.0548706l-0.002985,0.0044479  l-2.3671627-0.2748718l-2.0947189-0.3088531L12.202755,58.3981552z M8.9864235,26.3247299l0.1623087-1.857481l0.4089508-2.060585  l1.7884026,0.9698238l0.1404552,1.9996605l0.6614122-0.5714626l0.3047934-1.8878918l-0.1339941-1.9142437l4.1883202,1.2162647  l4.2551155,1.0803337l-0.6439743,2.7632084l-0.6828594,3.0966454l0.0610275,0.3670044l-0.0832863,0.3087502l-3.1079445-0.7492962  l-0.5972052,0.0846043l-0.3683567-0.2012119l-0.3676128,0.1042595l-0.6111088,0.085146l-0.6819792-0.2190723l-0.0000219,0.0000038  l-0.0000124-0.0000038l-0.4059401,0.0809517l-0.3082438-0.0116043l-0.1890326-0.1656227l-0.5440273-0.2649441l-0.3833094-0.0321712  l-0.6486244,0.0557499l-0.3550959-0.0990486l-0.2863235-0.1648464L10.540328,28.046381l0.0717163-0.3829632l-0.1666384-0.5385132  l-0.4129763-0.2674809l-0.309597-0.3156185l-0.4692669-0.1595001L8.9864235,26.3247299z M53.4563484,26.9463253l-0.00494-0.8792667  l0.3803673-0.0133953l0.2754288,1.2170067l0.5100632,0.4061775l1.0713425,0.1178913l1.5475807,0.3118649l1.5177422,0.649435  l1.2195778-0.3625031l1.7196999,0.4243412l-1.3570595,0.7639122l-1.0557137,0.9780121l-1.0253372,1.0262833l0.0093384,0.3113899  l-0.4064827,0.1437359l0.0671158,1.2470818l-0.7380676,0.5154762l-0.2387619,0.4796181l0.3563499,0.4211655l-0.0964127,0.5463943  l0.0211105,0.6122932l-0.0338287,0.5316124l0.529007,0.4535675l0.2001305,0.0133629l0.5166245,0.2883873l0.1717796,0.1319656  l0.1235428,0.2353439l0.4359131,0.3762703l0.5537682,0.300972l0.0504723,0.148304l0.0320702,0.5312729l0.0394402,0.179821  l-2.0640678,0.0541382l-2.3892288,0.0859909l-2.2226562,0.0622444l-1.7195625-0.0019302l0.0312576-2.0397797L51.298233,35.021286  l-0.2878761-0.1850433l-0.1356544-0.3078384l0.0742188-0.2577705l0.3620987-0.2544556l0.0269699-0.2986412l0.0053711-0.0001335  l0.0004654-0.0644951l0.0067062-0.0742683l-0.0061722,0.0001526l0.0025177-0.3493614l-0.0997925-0.3575668l-0.1264496-0.3616905  l-0.0704308-0.4500542l-0.0150871-0.524168l-0.0521622-0.1264515l-0.0561562-0.6492329l-0.003315-0.3116951L50.89534,30.1730404  l-0.0721245-0.4605389l-0.1852417-0.4841175l-0.16745-0.4070568l-0.0201645-0.3999176l-0.0135956-0.4381104l0.0539207-0.2830753  l0.0147476-0.289978l-0.1382217-0.3344593l-0.0115356-0.1383591L53.4563484,26.9463253z M58.4059334,31.9930401l1.4510727-0.5180817  l0.9536896,0.6901302l0.0509453,0.0373497l0.0968475-0.055645l0.0034904-0.0019493l0.1976242,0.0468674l0.1524277,0.3989716  l1.4286385,0.3144379l0.9222565,0.3297615l0.0244637,0.0087585l0.0185089-0.0014153l0.433033-0.0321083l0.2586517,0.0025024  l0.1145401,0.3504601l0.393219,0.1119041l0.1375122,0.2483177l-0.0666733,0.158165l-0.0531082,0.4705162l0.0001068-0.0000038  l-0.0001068,0.000988l0.3406982-0.011528l-0.0722351,0.3204117l0.0001831,0.0001945l-0.0001831,0.0008202l0.2544556,0.2650795  l-0.5523529,0.8664474l0.3395004,0.3464699l1.0656662-1.6016045l0.0935669-0.012413l-0.6219025,1.7000732l-0.2228622,1.6096878  l-0.1947098,1.2956963l-0.0021667,0.0147476l0.3060074,1.083725l0.0050735,0.4750061l-0.0162354,0.001194l0.0008774,0.0054817  l-1.2015762,0.084671l-1.7299843,0.1274338l-1.6487274,0.1058807l-0.1727943-0.3181229l-0.5463943-0.1828423l-0.1150169-0.3213692  l-0.0740852-0.1864929l-0.0282097-0.4344254l0.151886-0.196743l-0.2532387-0.3761406l-0.0815926-0.3539124l-0.0322723-0.5350266  l-0.0745583-0.2267189l-0.582592-0.3147049l-0.4103355-0.3541489l-0.1254349-0.2389984l-0.1998596-0.1535797L57.96492,36.7255898  l-0.1852417-0.0123482l-0.441597-0.3786049l0.0295677-0.4693336l-0.0205002-0.6045456l0.1052055-0.5961266l-0.3394356-0.4011345  l0.1823349-0.3663597l0.6752815-0.4715691h0.1007423l-0.0693474-1.2882843l0.4040451-0.1428566L58.4059334,31.9930401z   M64.3818207,29.9425354l-0.3535767,1.1179581l0.9635696,0.2247887l1.1978607,0.7686501l1.3547592-0.659214l1.4443283-0.358242  l0.393158,0.578125l0.5746078,0.0374489l0.0681305-0.235445l0.3436966,0.0019283l-0.129364,0.1910286l0.8431396,0.7478409  L69.865799,32.700222l-1.3194427-0.0933342l-1.1846695,0.590847l-1.0709381,0.3189659l-0.7732468,1.4846916l-0.1742325-0.1815643  l0.0952759-0.4229813l-0.0002213,0.0000076l0.0002213-0.000988l-0.3607025,0.012207l0.0299301-0.2811775l0.0891724-0.2113571  l-0.0002365-0.0004234l0.0002365-0.0005569l-0.1982346-0.3580399l-0.3767776-0.1075058l-0.1225967-0.3750229l-0.3639908-0.003212  l-0.4290123,0.0324745l-0.9220924-0.3300629l-1.3694382-0.3027306l-0.1519585-0.3977547l-0.1243515-0.0291252l0.9286537-0.5230541  l1.1848068-0.8244972L64.3818207,29.9425354z M66.4396667,42.8486214l0.062851,0.0510139l0.6141891-0.0726318l0.4263687-0.2902451  l1.783905-0.1802368l1.5011673-0.1881218l0.2567596,2.1199226l0.4317169,3.6831284l-0.0937042,0.1282425l0.2024231,0.4495773  l-0.0334167,0.1067619l-0.2703629,0.0365715l-0.2430878,0.223671l-0.4686584-0.0351143l0.0141449,0.4753571l-0.2136612,0.1801682  l-0.1817932,0.398262l-0.241539,0.0979996l-0.297554,0.6701393l-0.2930832-0.1178551l-0.1879501-0.3518829l-0.3192062,0.5851936  l-0.1351089,0.2137299l-0.385643-0.2120705l-0.4361877,0.2863235l-0.0903168,0.1846695l-0.5538406-0.2760048l-0.3637238,0.2850685  l-0.5270462-0.1469498l0.0041275,0.258213l-0.0920792-0.0147629l0.0141373-0.3861389l0.1883621-0.6044769l0.3156815-0.5124664  l0.0970917-0.3844261l0.1418762-0.1575012l-0.016243-0.329998l-0.136734-0.4076996l-0.1421432-0.1350403l0.1333542-0.6118202  L66.4396667,42.8486214z M68.4549561,40.9786911l-0.1161728-1.5112457l-0.6879272-1.3234673l-0.0182037-0.9318008  l0.2988434-1.1301041l0.3097992-0.7803841l0.4855728-0.5138893l0.1994476,0.622612l0.1346359-0.0120773l0.1466827-1.1118698  l0.3212357-0.2697792l0.1104126-0.8319092l1.3084106,0.262001l1.2498932,0.6941605l0.2616272,0.9590302l-0.0029068,1.0053787  l-0.7689209,1.0231743l0.1832809,0.6379013l0.4112167-0.0313263l0.8549118-1.1104851l0.5482941,0.1191444l0.4681778,1.2082481  l0.2116318,0.8714523l-0.5813065,1.3143654l-0.2524948,0.8330917l-0.4308395,0.9007454l-0.5876617,0.0993538l-0.7600555,0.0999641  l-0.7823181,0.1143723l-0.0225906-0.1725235l-1.6361465,0.2050323l-1.622673,0.1639328l0.1880112-0.2110214L68.4549561,40.9786911z   M78.0109863,40.5701485l1.0085602-0.7674637l0.0521317,0.2871933l0.0486069,0.2677612l2.6354294-0.4995461l2.3896332-0.4953117  l2.1939011-0.4852333l0.4097977,0.2458954l0.2107544,0.1330147l0.0119705,0.2329407L87.1763,39.8202744l0.3399048,0.0926895  l0.177063,0.0532455l-0.0924911,0.0750313l-0.1748199,0.5626678l-0.242485,0.2806396l0.1627121,0.2767487l-0.1263809,0.3002281  l0.0886993,0.4221077l0.2039185,0.0266228l0.0763168,0.2061844l0.6249466,0.4179153l-0.1249008,0.2265816l-0.3253555,0.3769836  l-0.0920181,0.1664352l-0.2680511,0.2511749l-0.3902435-0.0297661l-0.1606903,0.1644402l-0.0809021,0.1811981l-1.4521255,0.3271065  l-1.4502869,0.2955894l-1.2014465,0.2519188l-0.5364532,0.1095047l-1.5778198,0.2954216l-1.7064362,0.3040161l-0.3392258-1.971283  l-0.0458603-0.2689781L78.0109863,40.5701485z M83.4820404,45.3091583l0.1081238,0.1434402l0.0600281,0.0796585  l-0.0818176,0.3392982l-1.0091019-0.4285698l-0.0223923,0.6934471l-0.1556091,0.2384224l-0.2807083,0.352829l-0.1732712,0.2865257  l-0.153511-0.0735779l-0.2775955,0.7242661l-0.0422211,0.1965408l-0.1772766,0.0998878l-0.2506485-0.0953217l-0.345459-0.1701546  l-0.0918732,0.5921974l-0.2284775,0.4480247l-0.0270615,0.333004l-0.272728,0.3311119l-0.1888504,0.4621201l-0.0009232,0.002243  v0.0000038l-0.000206,0.0005035l0.0083771,0.0274811l0.0697708,0.2391205l-0.0023346,0.1650467l-0.2065887,0.1813202  l-0.2544632,0.010994l-0.1834106,0.1910286l-0.2563553-0.0536842l-0.0000687,0.0028076l-0.000946-0.0002022l-0.0058289,0.2427597  l-0.5582275,0.2615509l-0.2449112-0.1239471l-0.5164948,0.357872l-0.2551346-0.1161346l-0.2079086-0.1526337l-0.1159439-0.306778  l0.0679779-0.085495l-0.0990143,0.0033493l-0.0265579-0.0702591l-0.0575943,0.0730896l-0.2838669,0.0096207l-0.1958694-0.2172127  l-0.2945786-0.2451553l-0.1288147-0.3074303l-0.2581787-0.3166351l-0.0471573-0.440815l-0.0457993-0.1511421l0.3842163-0.1101494  l0.2032394-0.3864555l-0.047966-0.5013008l0.1485062-0.4526558l0.138092,0.0101471l0.0741501,0.2991104l0.2480927-0.1973877  l0.0225983-0.2588882l0.0065002-0.3881493l0.2875366-0.3930168l0.1946487,0.0142441l0.2374725-0.1070023l0.2039871-0.15588  l0.4000549-0.6104317l-0.0105515-0.2472496l0.0842285-0.5005951l0.0776672-0.6097221v-0.0000267v-0.0000038l-0.0081863-0.5418968  l-0.1021576-0.2296295l0.0782776-0.0547676l0.3431549,1.9939804l1.7748413-0.3162537l0.2026978,1.1921692l0.3250885-0.3537445  l0.2360535-0.2957268l0.3249588-0.1524963l0.1743469-0.2597008l0.5170364-0.0088272l0.169136-0.2191086l0.2650833-0.2072334  l0.5081024,0.0627174L83.4820404,45.3091583z M75.8632889,54.8151245l-0.2926102,0.2083168l-0.1502686,0.2200203  l-0.369812,0.2386932l-0.4013367,0.1567574l-0.3830032,0.1154251l-0.2361221,0.3231621l-0.0937042,0.2466736l-0.3839569,0.1987419  l0.0198746,0.4582901l-0.9107742,0.1366844L71.24617,57.265934l-2.3630829,0.2244034l-2.310936,0.2143288l-2.0242386,0.1136703  l-1.6456947,0.1147423l0.1045456-0.1181908l-0.0643425-0.6507912l0.2652168-0.3068199l0.0445862-0.3680191l0.2951164-0.2311172  l0.1767197-0.3556709l0.0062904-0.1966782l0.1006088-0.5449066l0.0879517-0.3271179l0.0253029-0.1722908l2.5952454-0.1859207  l-0.0367355-0.3530312l0.2470093-0.0253029l0.0684738,0.0986443l1.1581421-0.173912l2.0207062-0.1787148l1.0377121-0.0533485  l0.5174408-0.0882225l1.5894623-0.1005745l1.2101059-0.2349129l0.0683975-0.0079498l2.6072845-0.3030243l0.8148499-0.1675911  l-0.0006638,0.2003365l0.0585175,0.272892l-0.3199463,0.1401176l-0.2104797,0.4000206l-0.3012772,0.0037575l-0.5724411,0.493454  l-0.1757736-0.1748276l-0.4885483,0.4379082L75.8632889,54.8151245z M62.324379,58.3429489l0.0139313,0.3535805l-0.1997185,0.580555  L61.9502373,59.40448l-0.3326683,0.3441696l-0.1748924,0.4821892l-0.3715019,0.8181725l-0.0156288,0.5639191l0.2462692,0.5740662  l-0.0554085,0.3683243l-1.5495415,0.0020981l-2.0641403,0.1539841l-1.7556229,0.042614l0.0819321-1.2770767h-0.0738792  l-0.4428139,0.0003395l-0.3243446,0.0325432l-0.0657501-0.0938072l0.0205536-1.9451637l0.0019646-2.184227l-0.3876762-2.296402  l2.1202927-0.0152588l2.0014229-0.0632935l1.9047356-0.087883l2.0288239,0.0164719l0.1233368,0.1947517l-0.3483658,0.4710236  l-0.1500626,0.3469429l1.2223549-0.0804749l-0.0030441,0.0953255l-0.1493874,0.3005333l-0.3156853,0.2472153l-0.0463448,0.3831062  l-0.2764435,0.3198128l0.0642052,0.6498451l-0.1578674,0.1785393l-0.0281906,0.0019684l-0.0046425,0.0351677l-0.0980606,0.1109009  l0.084198-0.0058708l-0.0082169,0.0622292L62.324379,58.3429489z M19.8600368,50.6369209l-0.0131474,0.0679016l-0.0136452,0.0680542  l0.000452,0.0000801l-0.3238506,1.672493l-0.080513,0.0502014l-0.1587219,0.2659607l-0.1607189-0.0970879l-0.322485-0.2351418  l-0.4329681-0.089138l-0.2251968,0.3086166l0.101553,0.3501549l-0.0963078,0.4615211l-0.0513859,0.4338837l-0.001421,0.4406471  l-0.1417618,0.2883949l-2.3289251-3.3382225l-2.451438-3.6292381l-2.44491-3.739521l1.7303791-6.3926811l2.4955845,0.6256676  l2.2634296,0.5674973l0.0002689,0.000042l0.0617714,0.0154839l0.0020542-0.0060883l0.0005169-0.0014572l4.7681046,1.057003  l-2.1685448,10.8165283l-0.0077248,0.0385246L19.8600368,50.6369209z M27.9954929,35.037117l0.0220451-0.0384636  l0.1729641-1.0753708l3.0456657,0.4602013l2.4641228,0.3610497l2.8616104,0.3251915l2.5846329,0.2774582l-0.3601837,4.5111694  l-0.2903252,3.3809853l-0.0872345,1.0157967l-1.6243019-0.1524963l-3.3818855-0.3734322l-1.6873569-0.2153511l-1.6858273-0.2330742  l-3.281189-0.5691299l0.3442421-2.016552l0.0002327,0.0000458l0.0126686-0.0757103l0.0104008-0.0609245l-0.0001984-0.0000343  l0.9177589-5.4839439L27.9954929,35.037117z M39.5461693,33.305748l2.9385643,0.2195473l3.2279358,0.1710358l2.5640182,0.0968513  l2.9218712-0.0721931l-0.0197372,0.2187347l-0.349514,0.245594l-0.1016884,0.353035l0.1727257,0.3919334l0.2655525,0.1706963  l0.1797638,2.1185684l-0.0315437,2.0349426h-0.2177696l-0.0069695,0.6392212l0.205204,0.2945442l-0.0349121,0.2111893  l-0.0870056,0.3559418l-0.149929,0.4069557l0.2780037,0.261528l-0.0014229,0.0982933l-0.1836205-0.0215034l-0.1118355-0.0854492  l-0.0777397-0.1968842l-0.4727821-0.2002602l-0.4365883-0.3033066l-0.6093178,0.0133972l-0.4164925-0.0167465l-0.1352463,0.093605  l-0.5612793-0.180069l-0.4271164-0.3012085l-3.3250237-0.1311874l-2.4695358-0.1462059l-3.1428566-0.2446442l0.0740395-0.9275055  l0.2859535-3.5812645l0.1527176-1.1841469L39.5461693,33.305748z M59.880188,39.1919136l0.0193062,0.079258l0.2112923,0.3137245  l-0.1227951,0.1590614l0.032341,0.4975471l0.0819969,0.215519l0.1368027,0.382534l0.5585747,0.1868324l0.1160698,0.2138443  l-0.009716,0.0006256l0.0624733,0.0965767l0.0200691,0.0369797l0.0036812-0.0002365l0.0948944,0.1466789l0.1968155,0.0993881  l0.0928917,0.2346001l0.2857132,0.1707993l0.1558151,0.1541557l-0.0474968,0.5614815l-0.2699509,0.5105057l-0.0907936,0.1485405  l-0.3509369,0.1418076l-0.6045113,0.1513824l-0.1581802,0.477047l0.240181,0.1785126l0.0780067,0.2941704l-0.1888962,0.376812  l-0.0941124,0.3379784l-0.4270477,0.3617973l-0.0105553,0.3111115l-0.1330109-0.0957298l-0.3621674-0.366291l-1.8945236,0.1265182  l-1.9645462,0.073101l-1.5310707,0.0296669l-1.481926,0.0095406L52.429184,45.465683l0.0467491-0.3950806l-0.0383606-0.3938293  l-0.1769218-0.6587067l-0.1234055-0.297451l-0.108387-0.0651894l-0.0109596-0.480732L51.90728,42.774231l-0.2969437-0.4149704  l0.0046005-0.1730995l-0.108387-0.3833771l-0.0695992-0.2133636l0.0031586-0.2246132l-0.2556725-0.240551l0.1196175-0.3246498  l0.0912666-0.3723831l0.0451279-0.2719116l-0.2119675-0.3044243l0.0049362-0.4578323l1.9407349,0.0019646l2.2252274-0.0622787  l2.3890915-0.0859909L59.880188,39.1919136z M63.9547005,53.3827667l0.2066231-0.0789909l0.2851562,0.2679405l-0.0352325,0.2034264  l0.0560913,0.3193054l-0.2353821,0.1798286l-0.3720207,0.2543144l-0.0369606,0.0026474l-0.0036163,0.0250893l-0.1864319,0.1274414  l0.1698303-0.0121651l-0.0187531,0.1301918l-0.088089,0.328476l-0.092968,0.5024796l-1.0197144,0.0671196l0.0504036-0.1181259  l0.3999863-0.5404434l-0.2146721-0.3389931l-2.1080475-0.0170174l-1.907444,0.0879211l-1.9987144,0.0632248l-2.1299667,0.0152855  l0.0039902-1.0293236h-0.0098763l-0.0230064-2.3269157l-0.0181313-2.4452477l-0.4788055-0.213253l-0.2093964-0.4451828  l-0.116169-0.183857l0.2306442-0.4031639l-0.0672531-0.4083099l-0.2615585,0.0080872l-0.3785744-0.2714539l-0.2196465-0.4612694  l-0.276783-0.2997208l-0.2783394-0.3401413l-0.0007935-0.0041924l-0.0153084-0.0816612l1.452858-0.0093422l1.5331688-0.0297012  l1.9677925-0.0732727l1.8333626-0.1223907l0.3217049,0.3253632l0.2150841,0.1559486l-0.115696,0.5368233l0.1946487,0.6899948  l0.3170395,0.4552612l0.3579025,0.3713341l0.4330063,0.2909927l0.1449203,0.0810509l0.157505,0.3864555l0.0545959,0.4038773  l0.2713737,0.1087914l0.3064842-0.1569977l0.2933578,0.2794914l-0.0654221,0.3747482l-0.1391716,0.3287125l-0.1002655,0.4457893  l0.2929535,0.3464355l0.4002571,0.3176804l0.1985016-0.004837l0.4895668,0.4516106l0.164135,0.0476303l0.1549988,0.4821548  l-0.0422173,0.3457565L63.9547005,53.3827667z M44.7570496,53.6880684l-1.7940826-0.0889015l-1.6203461-0.0966835  l0.2157249-3.2139282l0.2082481-3.3776016l2.9437408,0.1672592l2.2408905,0.0900154l3.9665756,0.08004h2.3516693  l0.4131203,0.2961998l0.1871376-0.0057831l0.0395126,0.2400436l-0.2476921,0.4329376l0.1544609,0.2430878l0.2295609,0.4878387  l0.4443016,0.1978951l0.0174522,2.3561783l0.022995,2.3265457L53.02314,53.8411751l-3.2343941-0.0108261l-3.235714-0.0741196  L44.7570496,53.6880684z M38.5468521,44.2669754l0.0827179-0.9633293l0.2888794-3.3638229l3.1448174,0.2447472l2.4721756,0.1463432  l3.2854424,0.1296959l0.4023552,0.2836876l0.6551857,0.2134895l0.153244-0.1060524l0.3744774,0.0149193l0.5685196-0.0123825  l0.4055328,0.2816887l0.4383507,0.1873093l0.0705643,0.1786804l0.1727257,0.1319313l0.2535782,0.0297012l0.0585899,0.1795273  l0.1018257,0.3604393l-0.0052795,0.1985397l0.3099365,0.4330368l0.0990486,0.3515091l0.012516,0.5482216l0.1347733,0.0810852  l0.1012154,0.2426529l0.172184,0.6373596l0.036335,0.3732262l-0.0482407,0.4074631l0.1165695,0.4164352l0.0373497,0.199276  l0.3038445,0.3710289l0.2604103,0.2777634l0.1755028,0.3685608H50.91922l-3.9637985-0.0799713l-2.2383881-0.0899162  l-2.9414749-0.1668892l0.153141-2.2431755L38.5468521,44.2669754z M19.9969063,50.6615143l0.4060612-2.0254173l1.7696667-8.8268547  l4.3710155,0.7870369l0.4124336,0.0742683l-0.3677254,2.1540222l3.352253,0.58144l-1.2495518,8.7438164l-2.5061054-0.3989372  l-3.4033661-0.5889511L19.9969063,50.6615143z M28.8281403,52.1700439l1.2494202-8.7427139l1.6194515,0.2239037l1.6892185,0.2155876  l3.3841858,0.3736687l1.6265297,0.1527023l-0.0000954,0.0011139l0.0693054,0.0053864l0.0687485,0.0064545l0.0000916-0.0011063  l3.2460747,0.2522469l-0.1446152,2.1047974l-0.2163658,3.5175743l-0.2157364,3.2134514l-0.3694496-0.0281525l-1.2848473-0.0979233  l-2.1436005-0.1827393l-3.0397453-0.305233l-2.8196259-0.3398399L28.8281403,52.1700439z M39.5354424,54.480835l0.0376091-0.5024643  l0.035038-0.4679375l0.3911018,0.0298004l1.1958809,0.0911293l-0.0000763,0.0011253l0.068325,0.0040741l0.069931,0.0053291  l0.0000763-0.0011444l1.6220932,0.0967789l1.7955742,0.0890007l1.7978058,0.0681992l3.2381859,0.0741501l3.236763,0.0108604  l1.5159111-0.0180359l-0.0028839,0.7449036l-0.0005646,0.1461143l-0.0128517,0.0000916l0.0125618,0.0742378l-0.000248,0.0642548  l0.0111084-0.0000801l0.3894196,2.3011513l-0.0019646,2.1776657l-0.0195503,1.8533745l-0.7182426-0.3781853l-0.5533676-0.2445145  l-0.4386177,0.1601448l-0.6486893-0.0203629l-0.4083786,0.0041237l-0.3298912,0.1878166l-0.2832794,0.0836906l-0.2711678-0.1102104  l-0.6050529,0.1134605l-0.3047256-0.409935l-0.3238068,0.3508682l-0.4581032-0.136734l-0.5396957-0.3721123l-0.5390892,0.2029037  L48.2667427,60.22509l-0.9095116,0.0320015l-0.5403709-0.1343002l-0.5930443-0.1727943l-0.2721863-0.4978867l-0.5176048,0.137413  L45.1618767,59.40942l-0.3974838-0.2386932l0.191906-4.3633804l-1.8766937-0.0933342l-1.8078537-0.1086884L39.5354424,54.480835z   M64.5825195,53.5093994l-0.0826416-0.2899551l0.0716476-0.1547318l0.426239,0.0737801l0.482666,0.1850052l0.2802963-0.2601395  l-0.1071014-0.4712296l0.3455963-0.1976242l0.3660889-0.2326698L66.173912,51.939312l0.1627121-0.3068924l-0.0150909-0.0933647  l0.2211685,0.03545l-0.0038528-0.237915l0.4158173,0.1159668l0.3499222-0.2743149l0.6005173,0.2992096l0.1349792-0.2759361  l0.3346939-0.2196808l0.4267807,0.2346649l0.2070312-0.3277626l0.1984329-0.3637199l0.0907974,0.1699524l0.4639893,0.1865311  l0.3290787-0.7411804l0.2407227-0.0976639l0.1918106-0.4201126l0.2409897-0.2032394l-0.0115662-0.388485l0.3752899,0.0281448  l0.2551346-0.2349052l0.3146057-0.0425224l0.0753708-0.241127l-0.1909332-0.4240723l0.0424194-0.0579834l0.5479584-0.020771  l0.3110809,0.1629524l0.5336075,0.4466019l0.3976898,0.1100426l0.3108139,0.1522636l0.4135818-0.1207352l0.330574,0.0866699  l0.3728561-0.1832809l0.2683258-0.0711784l0.1675873,0.264843l0.3474884,0.1607475l0.0530396,0.1697235l0.0508728,0.4755249  l0.2676544,0.3234329l0.1380157,0.3293839l0.3096695,0.2567253l0.2357101,0.261322l0.2313004-0.0078163l-0.459404,0.5830688  l-0.0459061,0.058094l-0.5329971,0.3540382l-0.0000229,0.0002785l-0.0010605,0.0007019l-0.0183334,0.2034073l-0.0490494,0.0833054  l-0.0900497,0.1520386l-0.4509354,0.3349342l-0.1031799,0.1920776l-0.0232391,0.0427628l-0.3265457,0.1776314l-0.4903336,0.1937828  l-1.1931,0.2321472l-1.5886459,0.1005402l-0.5162201,0.0881233l-1.0362244,0.0533104l-2.0272675,0.1793938l-1.0771637,0.1616325  l-0.0658951-0.0950584l-0.4664917,0.0478325l0.0363312,0.3487015l-2.2527008,0.161396l0.1789551-0.1223907l0.3052673-0.2331123  l-0.0665054-0.378437l0.0155563-0.0896797L64.5825195,53.5093994z M82.6245575,44.8962669l-0.2585144,0.2021065l-0.1459351,0.185482  L81.6973953,45.29282l-0.1932983,0.2878456l-0.3194046,0.149929l-0.2531052,0.3173065l-0.1306458,0.1421127l-0.1556244-0.9153252  l1.5124817-0.2831764L82.6245575,44.8962669z M77.8836975,40.648201l0.4813156,2.8226242L78.13974,43.6286697l0.1369324,0.3080406  l0.0076447,0.5037384l-0.0760422,0.5972061l-0.0862656,0.5121918l0.0093384,0.2172813l-0.3629761,0.5538025l-0.1652222,0.128212  l-0.1978912,0.0892029l-0.2361908-0.0173531l-0.3588486,0.490509l-0.0070419,0.4272537l-0.0171127,0.1947479l-0.0327454,0.0260162  l-0.0464172-0.1872063l-0.346199-0.0254402l-0.1913986,0.583168l0.0468826,0.488987l-0.1565552,0.2974892l-0.3706894,0.1062889  l-0.3148727-0.1456337l-0.2000656-0.3162613l-0.3732605,0.0989838l-0.3454514,0.1683273l-0.3178558-0.0832825l-0.3988342,0.1164703  l-0.2683258-0.1314926l-0.3869934-0.108284l-0.5162888-0.4321213l-0.3626404-0.1917725l-0.5543823,0.0209999l-0.4274521-3.6467896  l-0.2350082-1.9481125l0.784111-0.1146049l0.7616119-0.100235l0.6079559-0.1037178l1.0907669,0.3123398l0.8724976-0.0101509  l1.1841278-0.4928093l0.8865051-0.7753792L77.8836975,40.648201z M66.7648239,47.8585968l-0.1453934,0.6670952l0.1740799,0.1654205  l0.1188049,0.3472481l0.0003128,0.0063057l0.0126114,0.256813l-0.1269989,0.140995l-0.0944443,0.3878441L66.389328,50.340889  l-0.2008743,0.6373596l-0.0165482,0.3964729l-0.0177536-0.0028458l0.0143814,0.0890312l-0.0022049,0.0532494l0.0110855,0.0017776  l0.0149612,0.0926704l-0.185173,0.3493805l0.1486435,0.1728287l-0.2281418,0.1450882l-0.4319839,0.2468796l0.1122437,0.4933548  L65.44944,53.1632195l-0.4083786-0.1565247l-0.5505829-0.0966454l-0.1379547,0.2978935l0.0332031,0.1165276l-0.1927414-0.1811066  l-0.1708984,0.0653229l-0.2312508-0.4581032l0.0408669-0.334259l-0.1869354-0.5812721l-0.2035141-0.059063l-0.5067482-0.4675789  l-0.2047272,0.0050087l-0.3455238-0.2727242l-0.2440376-0.2886581l0.0801048-0.3605423l0.1398468-0.3301964l0.0839615-0.4706879  l-0.418251-0.3984985l-0.3378792,0.1730995l-0.1378174-0.055275l-0.0449905-0.3325996l-0.1836205-0.4563789l-0.1826057-0.1018906  l-0.4108772-0.2745857l-0.3418694-0.3534393l-0.3004646-0.4315491l-0.1789513-0.6344147l0.0956535-0.4441071l0.0194283,0.0140457  L60.026062,46.17136l0.0082054-0.0381088l-0.0067558-0.0048637l0.0115585-0.3425179l0.4129791-0.3498192l0.0987091-0.3600006  l0.2093315-0.4175797l-0.1038551-0.3917313l-0.1986389-0.1476593l0.1027031-0.3096657l0.5352974-0.1340294l0.4068909-0.1637611  l0.1168404-0.1912651l0.2853088-0.539257l0.0553436-0.6542091l-0.2079086-0.2056427l-0.2656898-0.16119l-0.0949211-0.2398109  l-0.2103424-0.1061859l-0.0082245-0.0126839l-0.0241814-0.0373764l1.5757217-0.1012192l1.7303848-0.1274643l1.2154541-0.0856209  l0.0591965,0.5274506l0.5581055,1.1328735L66.7648239,47.8585968z M50.216404,26.9351616l0.0136681,0.1628838l0.1354485,0.3364906  l-0.0118408,0.2445107l-0.0558853,0.2932911l0.0141411,0.4547215l0.0213776,0.4249859l0.1759758,0.4276562l0.1781425,0.4615879  l0.0704956,0.4494781l0.0273361,0.2654839l0.0032463,0.3106461l0.0573044,0.6651325l0.0515556,0.1332836l0.0144119,0.5031986  l0.0729332,0.4692993l0.1302376,0.3755264l0.0932312,0.3345642l-0.0024338,0.3343201l-2.9281158,0.072464l-2.5587082-0.0967827  l-3.2253609-0.1708641l-2.9344749-0.2192764l0.159874-2.6767693l0.3421745-4.0877151l5.1161613,0.3649063L50.216404,26.9351616z   M39.5807724,30.481081l-0.1639557,2.744318l-0.026001,0.2016449l-0.2298813,1.7823067l-2.5838127-0.2773399l-2.8589668-0.324852  l-2.4615879-0.3607101l-3.1810818-0.4806671l-0.1874142,1.1651268l-0.0703926-0.0695992l-0.1047993-0.3480568l-0.2383881-0.1331177  l-0.3185272,0.4236679l-0.3305721,0.0069695l-0.921957-0.3160591l-0.0818634,0.2101097l-0.4760666-0.1667747l-0.2981968,0.2156563  l-0.1474247-0.5380058l-0.1444473-0.3883514l-0.3098335-0.116436l-0.049118-0.1375809l0.0130577-0.6071854l-0.2249928-0.333477  l-0.039444-0.7162495l-0.1385269-0.3850346l-0.2497215-0.1403198l-0.2495174,0.3152466l-0.2987709,0.1661644l-0.1746216-0.2073002  l0.0891361-0.5041771l0.2174835-0.1097736l-0.0124149-0.6228809l0.258955-0.5325928l0.3156528-0.5362129l-0.5227489-0.1326408  l-0.3042526-0.3771515l-0.274889-0.768919l-0.1844997-0.4098301L22.3132,27.3846722l-0.1855488-0.3819561l0.0882912-0.3962307  l-0.2635899-0.677784l0.3879433-2.2695446l4.3231602,0.8922234l4.4220409,0.7613735l4.4447727,0.6160145l4.392849,0.4623318  L39.5807724,30.481081z M21.8093262,25.9431801l0.2622375,0.6742649l-0.0896454,0.4023209l0.2176857,0.4482594l0.3016815,0.2849026  l0.1711712,0.3796558l0.2807064,0.7859001l0.3480263,0.431345l0.388485,0.0986099l-0.2245865,0.3818531L23.188982,30.397728  v0.0000343l0.0113316,0.5690269l-0.201582,0.1017895l-0.1124802,0.6363106l0.2899094,0.3441715l0.4226513-0.2351093  l0.1932945-0.2441387l0.1020947,0.057373l0.113121,0.30723l0.040966,0.7440548l0.2217445,0.3286743l-0.0126514,0.5887146  l0.079361,0.2221527l0.3108826,0.1168404l0.1204967,0.3232994l0.19837,0.7250099l0.4015427-0.2903824l0.5340481,0.1870689  l0.0822029-0.2109184l0.819458,0.2808762l0.4225159-0.0088654l0.2863216-0.3808365l0.0837936,0.0467834l0.0987778,0.3279648  l0.1269417,0.1260948l-0.0001869,0.0003242l0.039732,0.0389595l0.0230789,0.0229263l-0.9055424,5.4107552l-4.847208-0.8727837  l-1.8627949-0.412941l-2.9623642-0.6567268l0.9304485-3.8498001l0.2913628-0.6039734l-0.0691776-0.3630447l-0.2456627-0.2055092  L18.28685,33.275135l0.3243122-0.4276924l0.4420681-0.357399l0.3920021-0.6661797l0.3372345-0.5136833l0.2369003-0.2674809  l-0.0067997-0.4059734l-0.2289505-0.250803l-0.2472839-0.4760323l0.1016541-0.3769169l-0.0615673-0.370285l0.676939-3.069685  l0.643549-2.7614059l1.3078175,0.2981873L21.8093262,25.9431801z M8.9540415,26.4595261l0.2587948,0.0552845l0.4341536,0.1475582  l0.2919044,0.297554l0.3889923,0.2539501l0.1416731,0.4577312l-0.0686045,0.3661575l0.023613,0.3827686l0.3584108,0.2063866  l0.4035721,0.1148129l0.6618853-0.0568981l0.3460979,0.0290585l0.496871,0.2394371l0.2189369,0.1918049l0.3736677,0.0141068  l0.3867044-0.077158l0.677907,0.217783l0.6472378-0.0901871l0.3270187-0.0920467l0.3590202,0.1960697l0.6164875-0.0873108  l3.1170959,0.7514629l0.2493649,0.47999l0.210041,0.2336178l0.0050392,0.2996864l-0.2044926,0.2308769l-0.3478222,0.5286694  l-0.3810425,0.6474094l-0.4290791,0.3468742l-0.358242,0.4691315l-0.1008759,0.4057045l0.2742119,0.2293892l0.0513859,0.269474  l-0.2747192,0.5694351l-0.0000343,0.0001411l-0.0031471,0.0065231l-0.9358597,3.8708382l-4.755538-1.192276l-6.7191367-2.000515  l-0.1182642-1.295517l1.2068601-2.1208l0.886404-2.3906822L8.9540415,26.4595261z M16.7619019,59.9468842l0.2447128,0.0537872  l0.3533726-0.474678l-0.2811146-0.394371l0.0027409-0.3245506l-0.0136681-0.376442l0.453537-0.4207573l0.3503609-0.9678955  l0.6849556-0.3587151l-0.2884541-0.5493736l-0.1468487-0.4521141l-0.0688076-0.4076309l-0.0370083-0.3135529l0.0035915-0.1844139  l0.200901-0.4087677l0.0010147-0.4607086l0.0499306-0.4238358l0.1023655-0.4892921l-0.0922165-0.3179855l0.1325741-0.1816254  l0.316227,0.0650864l0.3031025,0.2207298l0.2849693,0.1724892l0.2129498-0.3567543l0.1033115-0.0644073l0.3357124-1.7336311  l2.7874203,0.500927l3.4047222,0.5891876l2.5090981,0.3994255l-1.797802,12.4574776l-3.7121754-0.5666275l-4.0366669-2.3344955  l-2.5566444-1.6075211L16.7619019,59.9468842z M81.0421829,62.5814018l-0.30896-0.0541573l-0.1416092-0.0402565  l-0.0617676-0.3950462l-0.27388-0.4151421l-0.3580322-0.1703606l0.0330124-0.1488457l-0.1642685-0.2480278l-0.2228622-0.5028267  l-0.673317-0.3560753l-0.2995834-0.4936905l-0.4983597-0.294239l-0.1700211-0.2568932l-0.7276535-0.4313126l-0.2681885-0.3478889  l-0.4603348-0.6746712l-0.3558731-0.0934334l-0.4821243-0.2631874l0.20047-0.3959274l0.161293-0.1968117l0.1623077-0.0863304  l0.9176941-0.5193329l1.6667938-0.240757l0.8082886-0.0340309l0.0638733,0.265316l0.199791-0.2221489l0.2788086,0.2621689  l0.0453339,0.304657l2.0716476-0.3398399l2.3797531,1.6602859l-0.4142609,1.6296234l-1.3626709,1.6551514L81.0421829,62.5814018z   M84.6519623,57.7447281l-2.4341507-1.6982841l-1.9884338,0.3262405l-0.0317993-0.2131882l-0.4169617-0.3921356l-0.1184692,0.131691  l-0.0289612-0.120121l-0.9256058,0.0389671l-1.7030563,0.2456284l-0.938736,0.5313072l-0.1618347,0.0859947l-0.9193878,0.1179276  l-1.2743149,0.1634216L73.6946945,56.60532l0.3532333-0.1827736l0.0997925-0.2711334l0.2029724-0.277832l0.3436966-0.1037865  l0.4131088-0.1610909l0.4115601-0.2639618l0.152153-0.2227249l0.345932-0.2463379l-0.0337601-0.1643372l0.3318558-0.2974548  l0.1740112,0.1730652l0.6314392-0.5442619l0.3332138-0.0041618l0.2263107-0.4301262l0.3797531-0.1663017l-0.0797653-0.3613548  l0.0007477-0.2175484l0.3066025-0.0416756l2.6623077-0.3610191l3.5460892-0.6606331l1.872467-0.4062767l1.8334274-0.4133835  l0.716011,2.0485077l-0.7644577,1.8392143l-1.5853958,1.2152481l-1.3392639,1.4238014L84.6519623,57.7447281z   M86.3394547,51.2572975l-1.8688812,0.4058037l-3.5417557,0.6596527l-2.2468109,0.3054657l-0.7006073,0.0949783l0.0000229-0.0056648  l-0.080658,0.0165977l-0.0579758,0.0078583l-0.0000153,0.0040779l-0.8382492,0.1725082l-2.1446991,0.2491226l0.0057373-0.002243  l0.3746109-0.2031059l0.0003586-0.0006561l0.0007935-0.0004272l0.0481033-0.0895729l0.0826797-0.1521645l0.448761-0.3342934  l0.10569-0.1795425l0.0643997-0.1087074l0.0151901-0.1679192l0.486351-0.322998l0.0005875-0.0007439l0.0003586-0.0002365  l0.1891327-0.2381058l0.3562622-0.4480972l0.1009293,0.2689629l0.247963,0.181221l0.344368,0.1588898l0.5133133-0.3556366  l0.2315216,0.1181297l0.6980133-0.3270874l0.0000687-0.0025291l0.000946-0.0004463l0.0039062-0.1607246l0.1676025,0.0358276  l0.1981659-0.2064514l0.2478333-0.0107269l0.2903824-0.2558746l0.0000305-0.0021973l0.0019302-0.0016937l0.0035858-0.2500954  l-0.0721207-0.2370987l0.1578369-0.3913612l0.276413-0.3366394l0.0162735-0.0197449l0.0282822-0.3489723l0.2261734-0.4434204  l0.0663071-0.4278259l0.1821976,0.0895081l0.0060883,0.0023232l0.3108139,0.1189499l0.0004196-0.0002403l0.0007324,0.0002747  l0.2618866-0.1482086l0.0259933-0.0146408l0.003273-0.0155869l0.0474701-0.2250328l0.2231979-0.5791092l0.1313171,0.0629234  l0.2308502-0.3831749l0.2815857-0.3544884l0.1806412-0.276207l0.0171204-0.5301247l0.9737091,0.4135513l0.1128387-0.4731407  l0.1935806,0.0173378l0.1952591,0.0880203l-0.0826111,0.2804375l0.4568863,0.067421l0.3526917,0.1693115l0.1554108,0.1351089  l0.0146103,0.1013145l0.0056839,0.1514511l-0.2434235,0.2617645l-0.0617752,0.3486557l-0.0466156,0.262825l0.0000381,0.0000114  l-0.0000381,0.0002251l0.0598145,0.0167542l0.2830048,0.0804024l0.2263794-0.1337585l0.1328506,0.2294235l0.0053711,0.009304  l0.0000305,0.0000191l0.0053177,0.009182l0.0144653,0.0052605l1.3372421,0.9759636l0.5600662,0.9600143l0.7924576,1.224926  L86.3394547,51.2572975z M87.625,46.6063766l-0.7310104-2.6693916l0.0748062-0.1676903l0.098175-0.1004372l0.2357635,0.0179863  l-0.1487579,0.2150917l0.151619,0.4432182l0.0000305,0.0000496l0.0237122,0.0693321l0.0127792-0.0052032l0.5934982,1.0427856  l0.6675644,0.9295959L87.625,46.6063766z M88.0772171,31.4904861l2.7010422-0.7195587l-0.0158844,0.5737915l0.2022247,0.2819252  l0.0107574,0.2399445l-0.2568893,0.3195419l-0.2953262,0.2022285l0.0057526,0.2628098l0.0578461,0.3608475l-0.0469513,0.5481224  l-0.0752335,0.2161598l-0.0618362,0.5044174l0.0832138,0.5288696l-0.0129929,0.1505394l0.1122437,0.5774498l-0.055069,0.3376732  l0.1259766,0.1286163l-1.1435318,0.2646713L89.021843,34.458313l-0.2525635,0.04533l-0.0121155-0.0180969l0.0205688-0.3383865  l-0.289093-0.5327606l0.0434341-0.4914246l-0.177803-0.3238411l-0.1976242-0.6227798l-0.0085907-0.2878094L88.0772171,31.4904861z   M89.744751,40.2286491l-0.0665054-0.1329765l0.3218384-0.3197823l-0.2143326-0.1854134l-0.3115616-1.5974388l1.1859589-0.2651138  l1.4548187-0.3379097l0.3149414,1.1060486l-0.0108414,0.2895432l-0.6492157,0.2847939l-0.923111,0.357769L89.744751,40.2286491z   M93.1741333,34.957756l-0.1703568,0.0109596l-0.3275299,0.2663307l-0.0993195,0.2442055l-1.8636017,0.4870949l-0.1351776-0.1379852  l0.0477676-0.2928848l-0.1131897-0.5827942l0.0127182-0.1479683l-0.0828171-0.5266266l0.055275-0.4633598l0.0755768-0.2172432  l0.0527725-0.590744l-0.0589294-0.3634186l-0.0039902-0.1830444l0.2418671-0.1655922l0.3108826-0.3820229l-0.014946-0.3333092  l-0.1989822-0.2774601l0.017189-0.6180782l-0.0015564-0.0525684l-0.0010147-0.0003357l0.0041275-0.4823608l0.3806686-0.163105  l1.2859116,3.8073635l0.0010834,0.2572975l0.4000549,0.2491112l0.1809845,0.3193741l0.0000458-0.0000229l0.0000229,0.0000229  l0.0817108-0.0351334l0.0105743-0.0045433L93.1741333,34.957756z M91.4221649,29.9094162l0.5093155-0.5409489l0.2609558-1.1691742  l-0.0345764-1.8211155l0.6112823-1.8816338l0.6297455,0.3992081l0.8781204-0.6784267l0.78759,0.3833084l0.939476,2.9337292  l1.3836517,0.8931026l0.2969437,0.8387737l-1.2341232,1.1295948l-1.3400116,0.9712124l-1.4040146,1.8487167l-0.401947,1.1940231  l-0.0756378,0.0324936l-0.137207-0.2420425l-0.3648758-0.2272606l-0.000946-0.2032394L91.4221649,29.9094162z"/><text x="0" y="115" fill="#000000" font-size="5px" font-weight="bold" font-family="'Helvetica Neue', Helvetica, Arial-Unicode, Arial, Sans-serif">Created by Alexander Skowalsky</text><text x="0" y="120" fill="#000000" font-size="5px" font-weight="bold" font-family="'Helvetica Neue', Helvetica, Arial-Unicode, Arial, Sans-serif">from the Noun Project</text></svg>