<svg xmlns="http://www.w3.org/2000/svg" xmlns:xlink="http://www.w3.org/1999/xlink" version="1.1" x="0px" y="0px" viewBox="15 0 70 100" style="enable-background:new 0 0 100 100;" xml:space="preserve"><title>Asset 39</title><path d="M80.9,53.4c-3-1.6-6.6-0.7-8.6,1.9l-6.8-4.2c0.6-1.5-0.1-3.2-1.6-3.8c-0.5-0.2-1.2-0.3-1.8-0.2l-1.9-4.6  c1.4-0.8,1.7-2.7,0.8-4s-2.7-1.7-4-0.8c-0.4,0.3-0.7,0.7-1.1,1.2L43.6,36c0-0.1,0-0.3,0-0.4c0-0.7-0.2-1.5-0.6-2.1l14.2-13  c1.3,1,3.1,1.1,4.4,0.2l6.8,6.6c-0.8,1.3-0.4,3,0.8,3.7c1.3,0.8,3,0.4,3.7-0.8c0.8-1.3,0.4-3-0.8-3.7c-0.8-0.5-2-0.5-3,0l-6.8-6.6  c0.5-0.6,0.8-1.5,0.8-2.3l8.6-1.7c1.4,3.4,5.3,5,8.7,3.6c3.4-1.4,5-5.3,3.6-8.7s-5.3-5-8.7-3.6c-3,1.3-4.7,4.5-3.9,7.6l-8.3,1.6  c-0.4-1.5-1.8-2.5-3.3-2.7l-0.2-4c1.4-0.3,2.3-1.7,2-3.1s-1.8-2.3-3.2-2c-1.4,0.3-2.3,1.7-2,3.1c0.2,1,1,1.8,2,2l0.1,4.1  c-0.8,0.2-1.7,0.7-2.2,1.5l-8.4-4.9c0.3-1.3-0.4-2.5-1.7-3c-1.3-0.3-2.5,0.4-3,1.7c-0.3,1.3,0.4,2.5,1.7,3c0.8,0.2,1.8,0,2.3-0.6  l8.4,4.9c-0.3,1.1-0.2,2.3,0.5,3.3l-14,13c-1.4-1.1-3.3-1.1-4.7,0L27,22.3c2.2-2.8,1.9-6.8-0.8-9.1c-2.8-2.2-6.8-1.9-9.1,0.8  c-2.3,2.8-1.9,6.8,0.8,9.1c2.4,2,5.9,2,8.3-0.1l10.5,10.3c-0.6,0.8-0.8,1.9-0.6,3l-8.8,2.9c-0.8-1.4-2.5-1.8-3.9-1  c-1.4,0.8-1.8,2.5-1,3.9s2.5,1.8,3.9,1c1-0.6,1.5-1.7,1.3-2.9l8.8-2.9c0.6,1.2,1.8,1.8,3.1,1.9l-0.2,5.5c-1.4,0.3-2.1,1.7-1.8,3  c0.3,1.4,1.7,2.1,3,1.8c1.4-0.3,2.1-1.7,1.8-3c-0.2-1-1-1.6-1.8-1.8l0.2-5.6c1.2-0.3,2-1.1,2.5-2.1l12.4,2.8v0.1  c0,1.6,1.3,2.9,2.9,2.9c0.2,0,0.4,0,0.5-0.1l1.9,4.6c-1.3,1-1.7,2.8-0.7,4l-3.2,4c-1-0.6-2.2-0.4-2.9,0.4c-0.6,1-0.4,2.2,0.4,2.9  l-4.2,7.6c-0.8-0.3-1.8-0.1-2.7,0.3l-10-10.2c1.3-1.7,1-4-0.7-5.3c-1.7-1.3-4-1-5.3,0.7c-1.1,1.5-1,3.5,0.2,4.8l-7.4,10.2  c-0.2-0.1-0.4-0.2-0.6-0.2c0,0-0.7-0.2-1.1-0.2c-3.5-0.4-6.7,2-7.1,5.6c-0.4,3.5,2,6.7,5.6,7.1c3.5,0.4,6.7-2,7.1-5.6  c0.3-2.5-0.9-4.9-3-6.2l7.3-10c0.2,0.1,0.4,0.2,0.6,0.3c0.3,0.1,1.1,0.2,1.1,0.2h0.4c0.7,0,1.6-0.2,2.2-0.7l10,10.3  c-0.7,1.1-0.7,2.5,0,3.6l-5.5,5.6c-1.1-0.7-2.4-0.4-3.2,0.5c-0.7,1.1-0.4,2.4,0.5,3.2c1,0.7,2.4,0.4,3.2-0.5  c0.5-0.6,0.5-1.6,0.2-2.3l5.5-5.7c0.4,0.3,1.1,0.4,1.6,0.5l1.5,6.5c-4.5,1.6-6.9,6.5-5.3,11c1.6,4.6,6.5,6.9,11,5.3  c4.5-1.6,6.9-6.5,5.3-11c-1.5-4.1-5.7-6.5-10-5.6L50.3,72c1.1-0.4,1.8-1.3,2-2.3l4.6-0.3c0.3,1,1.4,1.6,2.4,1.3  c1.1-0.3,1.6-1.4,1.3-2.4s-1.4-1.6-2.4-1.3c-0.6,0.2-1.1,0.6-1.3,1.3l-4.5,0.3c-0.1-0.6-0.5-1.3-1.1-1.7l4.4-7.6  c1.2,0.2,2.2-0.5,2.4-1.6c0.1-0.5,0-1-0.2-1.4l3.4-3.8c1.2,0.7,2.7,0.5,3.6-0.4l6.8,4.3c-1.7,3.3-0.4,7.4,2.9,9.2  c3.3,1.7,7.4,0.4,9.2-2.9C85.5,59.3,84.2,55.2,80.9,53.4z M77.8,9.4c1,0,1.7,0.7,1.7,1.7c0,1-0.7,1.7-1.7,1.7c-1,0-1.7-0.7-1.7-1.7  C76.1,10.2,76.8,9.3,77.8,9.4z M77.8,13.4c1.5,0.1,2.5,1.4,2.4,2.8c0,1.1-4.8,1.1-4.8,0C75.2,14.6,76.3,13.5,77.8,13.4z M22.2,14.3  c1,0,1.7,0.7,1.7,1.7c0,1-0.7,1.7-1.7,1.7c-1,0-1.7-0.7-1.7-1.7C20.4,15.1,21.2,14.3,22.2,14.3z M19.8,21c-0.1-1.4,1-2.7,2.4-2.8  c1.5,0.1,2.5,1.4,2.4,2.8C24.6,22.1,19.8,22.1,19.8,21z M21.7,68.4c1.1,0,1.9,0.8,1.9,1.9s-0.8,1.9-1.9,1.9s-1.9-0.8-1.9-1.9  S20.6,68.4,21.7,68.4z M18.9,75.8c-0.1-1.6,1.2-2.9,2.7-3c1.7,0,2.9,1.4,2.8,3C24.3,77,18.9,77,18.9,75.8z M53.4,82.3  c1.2,0,2.1,1,2.1,2.1c0,1.2-1,2.1-2.1,2.1s-2.1-1-2.1-2.1C51.3,83.2,52.3,82.3,53.4,82.3z M53.3,87.3h0.1c1.8,0.1,3.1,1.6,3,3.4v0.1  c0,1.3-5.9,1.3-5.9-0.1C50.4,88.9,51.6,87.4,53.3,87.3z M77.8,54.9c1.1,0,1.9,0.8,1.9,1.9c0,1.1-0.8,1.9-1.9,1.9s-1.9-0.8-1.9-1.9  C75.9,55.7,76.8,54.9,77.8,54.9z M75.1,62.3c-0.1-1.6,1.2-3,2.8-3.1c1.6,0.1,2.8,1.5,2.7,3.1C80.5,63.5,75.1,63.5,75.1,62.3z"/>
<!-- <text x="0" y="115" fill="#000000" font-size="5px" font-weight="bold" font-family="'Helvetica Neue', Helvetica, Arial-Unicode, Arial, Sans-serif">Created by Björn Andersson</text><text x="0" y="120" fill="#000000" font-size="5px" font-weight="bold" font-family="'Helvetica Neue', Helvetica, Arial-Unicode, Arial, Sans-serif">from the Noun Project</text> -->
</svg>