<svg xmlns="http://www.w3.org/2000/svg" xmlns:xlink="http://www.w3.org/1999/xlink" version="1.1" x="0px" y="0px" viewBox="0 0 100 125" enable-background="new 0 0 100 100" xml:space="preserve"><path fill="#000000" d="M88.684,42.233l-2.606-8.025c-0.002-0.005-0.008-0.006-0.009-0.012c-0.005-0.01-0.008-0.017-0.014-0.024  c-0.003-0.005,0-0.01-0.003-0.015L76.62,21.201c-0.003-0.005-0.009-0.003-0.012-0.007c-0.007-0.008-0.012-0.014-0.021-0.021  c-0.003-0.003-0.003-0.008-0.007-0.012l-6.807-4.949c-0.009-0.006-0.019-0.003-0.027-0.008c-0.01-0.004-0.013-0.015-0.022-0.019  l-15.226-4.969c-0.009-0.003-0.018,0.004-0.027,0.003c-0.011-0.003-0.017-0.012-0.028-0.012h-8.418  c-0.006,0-0.009,0.004-0.014,0.006c-0.011,0-0.019,0.002-0.029,0.004c-0.004,0.002-0.009-0.002-0.013-0.001l-15.244,4.969  c-0.005,0.003-0.007,0.009-0.012,0.011c-0.009,0.004-0.015,0.007-0.022,0.011c-0.005,0.003-0.012,0.001-0.017,0.005l-6.806,4.949  c-0.009,0.006-0.009,0.018-0.016,0.025c-0.007,0.007-0.018,0.007-0.023,0.015l-9.432,12.956c-0.007,0.009-0.002,0.02-0.007,0.028  c-0.005,0.01-0.016,0.012-0.019,0.022l-2.588,8.025c-0.002,0.004,0.002,0.009,0.001,0.014c-0.002,0.011-0.003,0.018-0.005,0.027  c0,0.006-0.005,0.009-0.005,0.014v15.994c0,0.004,0.005,0.008,0.005,0.014c0.002,0.01,0.003,0.017,0.005,0.027  c0.001,0.004-0.003,0.009-0.001,0.014l2.588,8.025c0.003,0.012,0.015,0.018,0.021,0.027c0.003,0.008,0,0.016,0.005,0.022  l9.432,12.956c0.005,0.008,0.016,0.005,0.021,0.012c0.008,0.009,0.008,0.021,0.018,0.028l6.806,4.95h0.001  c0.01,0.007,0.022,0.007,0.033,0.012c0.007,0.004,0.009,0.012,0.017,0.014l15.244,4.95c0.019,0.006,0.037,0.01,0.056,0.01h8.418  c0.019,0,0.037-0.004,0.056-0.01l15.226-4.95c0.008-0.002,0.01-0.012,0.018-0.015c0.011-0.005,0.022-0.004,0.032-0.011l6.807-4.95  c0.004-0.003,0.004-0.008,0.007-0.012c0.009-0.007,0.015-0.014,0.021-0.022c0.003-0.003,0.008-0.002,0.011-0.006l9.432-12.956  c0.003-0.005,0-0.009,0.003-0.014c0.005-0.009,0.009-0.015,0.014-0.023c0.001-0.005,0.007-0.007,0.009-0.013l2.606-8.025  c0.004-0.01-0.004-0.019-0.002-0.028c0.001-0.011,0.011-0.017,0.011-0.026V42.288c0-0.011-0.01-0.017-0.011-0.027  C88.68,42.252,88.688,42.242,88.684,42.233z M69.586,84.052l-15.169,4.931h-7.838l6.335-4.607l15.188-4.932h7.819L69.586,84.052z   M24.103,79.134l-9.396-12.909l-2.409-7.473l6.337,4.608l9.379,12.929l2.426,7.452L24.103,79.134z M14.706,34.345l9.396-12.909  l6.335-4.606l-2.425,7.434l-9.38,12.928l-6.336,4.627L14.706,34.345z M54.417,11.568l15.169,4.95l6.335,4.607h-7.819l-15.188-4.931  l-6.337-4.627H54.417z M67.932,79.12l-15.068,4.894l-10.846-7.876l4.149-12.763l15.052-4.894l10.846,7.895L67.932,79.12z   M28.267,76.026L18.962,63.2l4.15-12.744h13.409l9.305,12.808l-4.15,12.763H28.267z M12.136,42.38l6.532-4.769l4.124,12.664  l-4.124,12.666l-6.532-4.751V42.38z M28.267,24.524h13.409l4.15,12.764l-9.305,12.807H23.112l-4.15-12.744L28.267,24.524z   M52.862,16.556l15.069,4.895l4.133,12.744l-10.846,7.895l-15.052-4.912l-4.149-12.764L52.862,16.556z M46.094,63.02l-9.259-12.744  l9.259-12.744l14.977,4.887V58.15L46.094,63.02z M72.275,66.084L61.43,58.19V42.38l10.846-7.895L83.12,42.38V58.19L72.275,66.084z   M83.206,41.997l-10.778-7.846l-4.105-12.664h8.062l9.323,12.808L83.206,41.997z M45.993,11.587l6.532,4.77l-10.776,7.808H28.424  l2.5-7.664L45.993,11.587z M30.924,84.07l-2.5-7.683h13.325l10.776,7.825l-6.532,4.751L30.924,84.07z M76.384,79.083h-8.062  l4.105-12.665l10.778-7.846l2.501,7.703L76.384,79.083z M85.906,65.725l-2.427-7.471V42.316l2.427-7.471l2.427,7.471v15.938  L85.906,65.725z"/>
<!-- <text x="0" y="115" fill="#000000" font-size="5px" font-weight="bold" font-family="'Helvetica Neue', Helvetica, Arial-Unicode, Arial, Sans-serif">Created by Lluisa Iborra</text><text x="0" y="120" fill="#000000" font-size="5px" font-weight="bold" font-family="'Helvetica Neue', Helvetica, Arial-Unicode, Arial, Sans-serif">from the Noun Project</text> -->
</svg>