<svg xmlns="http://www.w3.org/2000/svg" xmlns:xlink="http://www.w3.org/1999/xlink" version="1.1" x="0px" y="0px" viewBox="0 0 8403.94 11373.225" enable-background="new 0 0 8003.94 11173.58" xml:space="preserve"><polygon fill="none" stroke="#000000" stroke-width="130" stroke-linejoin="round" stroke-miterlimit="10" points="  7912.145,553.151 7912.145,10985.742 535.556,10985.742 536.194,2462.175 2442.933,553.79 "/>
<polygon fill="none" stroke="#000000" stroke-width="60" stroke-linejoin="round" stroke-miterlimit="10" points="  5761.807,553.79 6602.229,1629.806 4909.021,2462.175 "/>
<polyline fill="none" stroke="#000000" stroke-width="60" stroke-linejoin="round" stroke-miterlimit="10" points="  4909.021,2462.175 6095.5,5251.046 6602.229,1629.806 "/>
<path fill="none" stroke="#000000" stroke-width="130" stroke-linejoin="round" stroke-miterlimit="10" d="M8715.652,5769.447"/>
<polyline fill="none" stroke="#000000" stroke-width="130" stroke-linejoin="round" stroke-miterlimit="10" points="  536.194,2462.175 2442.933,2462.175 2442.933,553.79 "/>
<polyline fill="none" stroke="#000000" stroke-width="60" stroke-linejoin="round" stroke-miterlimit="10" points="  3351.764,3347.731 1881.021,4904.986 536.194,2462.175 "/>
<polyline fill="none" stroke="#000000" stroke-width="60" stroke-linejoin="round" stroke-miterlimit="10" points="  3351.764,3347.731 2442.933,2462.175 4909.021,2462.175 "/>
<polyline fill="none" stroke="#000000" stroke-width="60" stroke-linejoin="round" stroke-miterlimit="10" points="  7912.145,553.151 6602.229,1629.806 7912.145,3718.505 6095.5,5251.046 3351.764,3347.731 4909.021,2462.175 3920.286,553.79   2442.933,2462.175 1881.021,4904.986 535.556,5893.727 3129.299,7735.241 2016.973,9329.574 535.556,10985.742 3079.863,10071.128   5032.613,8785.772 4328.141,5988.41 6911.209,6968.973 6404.482,7970.066 7912.145,8575.666 6602.229,9947.535 7912.145,10985.742   "/>
<polygon fill="none" stroke="#000000" stroke-width="60" stroke-linejoin="round" stroke-miterlimit="10" points="  6911.209,6968.973 7912.145,5930.803 6095.5,5251.046 "/>
<polyline fill="none" stroke="#000000" stroke-width="60" stroke-linejoin="round" stroke-miterlimit="10" points="  6095.5,5251.046 4328.141,5988.41 3351.764,3347.731 2721.443,5988.41 1881.021,4904.986 "/>
<polyline fill="none" stroke="#000000" stroke-width="60" stroke-linejoin="round" stroke-miterlimit="10" points="  2721.443,5988.41 4328.141,5988.41 3129.299,7735.241 2721.443,5988.41 535.556,5893.727 "/>
<polyline fill="none" stroke="#000000" stroke-width="60" stroke-linejoin="round" stroke-miterlimit="10" points="  6602.229,9947.535 6404.482,7970.066 5032.613,8785.772 3129.299,7735.241 535.556,7735.241 2016.973,9329.574 3079.863,10071.128   5341.591,10985.742 6602.229,9947.535 5032.613,8785.772 5341.591,10985.742 "/>
<line fill="none" stroke="#000000" stroke-width="60" stroke-linejoin="round" stroke-miterlimit="10" x1="2016.973" y1="9329.574" x2="5032.613" y2="8785.772"/>
<line fill="none" stroke="#000000" stroke-width="60" stroke-linejoin="round" stroke-miterlimit="10" x1="3079.863" y1="10071.128" x2="3351.764" y2="10985.742"/>
<!-- <text x="0" y="11353.58" fill="#000000" font-size="5px" font-weight="bold" font-family="'Helvetica Neue', Helvetica, Arial-Unicode, Arial, Sans-serif">Created by Bruno Bosse</text><text x="0" y="11358.58" fill="#000000" font-size="5px" font-weight="bold" font-family="'Helvetica Neue', Helvetica, Arial-Unicode, Arial, Sans-serif">from the Noun Project</text> -->
</svg>