<svg xmlns="http://www.w3.org/2000/svg" xmlns:xlink="http://www.w3.org/1999/xlink" version="1.1" x="0px" y="0px" viewBox="0 0 100 125" style="enable-background:new 0 0 100 100;" xml:space="preserve"><path d="M91.41,81.51l-9.9,9.9c-0.39,0.39-0.9,0.59-1.41,0.59s-1.02-0.2-1.41-0.59L64.54,77.26l-8.49,8.49  c-0.48,0.48-1.18,0.69-1.84,0.54c-0.67-0.14-1.21-0.62-1.45-1.25L35.08,37.66c-0.27-0.73-0.09-1.56,0.46-2.11  c0.55-0.55,1.38-0.73,2.11-0.46l47.38,17.68c0.64,0.24,1.11,0.78,1.25,1.45s-0.06,1.36-0.54,1.84l-8.49,8.49l14.14,14.14  C92.19,79.46,92.19,80.72,91.41,81.51z M38,26c1.1,0,2-0.9,2-2V10c0-1.1-0.9-2-2-2s-2,0.9-2,2v14C36,25.1,36.9,26,38,26z M26,38  c0-1.1-0.9-2-2-2H10c-1.1,0-2,0.9-2,2s0.9,2,2,2h14C25.1,40,26,39.1,26,38z M47.9,30.1c0.51,0,1.02-0.2,1.41-0.59l9.9-9.9  c0.78-0.78,0.78-2.05,0-2.83c-0.78-0.78-2.05-0.78-2.83,0l-9.9,9.9c-0.78,0.78-0.78,2.05,0,2.83C46.88,29.91,47.39,30.1,47.9,30.1z   M26.69,46.49l-9.9,9.9c-0.78,0.78-0.78,2.05,0,2.83c0.39,0.39,0.9,0.59,1.41,0.59s1.02-0.2,1.41-0.59l9.9-9.9  c0.78-0.78,0.78-2.05,0-2.83C28.73,45.7,27.47,45.7,26.69,46.49z M19.62,16.79c-0.78-0.78-2.05-0.78-2.83,0  c-0.78,0.78-0.78,2.05,0,2.83l9.9,9.9c0.39,0.39,0.9,0.59,1.41,0.59s1.02-0.2,1.41-0.59c0.78-0.78,0.78-2.05,0-2.83L19.62,16.79z"/><text x="0" y="115" fill="#000000" font-size="5px" font-weight="bold" font-family="'Helvetica Neue', Helvetica, Arial-Unicode, Arial, Sans-serif">Created by Mark Aventura</text><text x="0" y="120" fill="#000000" font-size="5px" font-weight="bold" font-family="'Helvetica Neue', Helvetica, Arial-Unicode, Arial, Sans-serif">from the Noun Project</text></svg>