<svg xmlns="http://www.w3.org/2000/svg" xmlns:xlink="http://www.w3.org/1999/xlink" version="1.1" x="0px" y="0px" viewBox="0 0 512 640" enable-background="new 0 0 512 512" xml:space="preserve"><g><path d="M482.5,187.3c-1.1-6.9-7-11.9-13.9-11.9h-23.7v-27.8h51c7.8,0,14.1-6.3,14.1-14.1c0-7.8-6.3-14.1-14.1-14.1H16.1   c-7.8,0-14.1,6.3-14.1,14.1c0,7.8,6.3,14.1,14.1,14.1h51v27.8H43.5c-7,0-12.9,5.1-13.9,11.9L2.2,361.8c-0.6,4.1,1.3,16.3,13.9,16.3   H40c0,0.1,0,0.3,0,0.4c0,7.8,6.3,14.1,14.1,14.1h61.4c7.8,0,14.1-6.3,14.1-14.1c0-0.1,0-0.3,0-0.4h252.8c0,0.1,0,0.3,0,0.4   c0,7.8,6.3,14.1,14.1,14.1h61.4c7.8,0,14.1-6.3,14.1-14.1c0-0.1,0-0.3,0-0.4c0,0,24,0,24.1,0c14.9,0,13.9-16.9,13.5-18.3   L482.5,187.3z M95.4,147.5h321.3v27.8H95.4V147.5z M32.6,349.9l22.9-146.3h401l22.9,146.3H32.6z"/><path d="M206.6,231.8H91.7c-7,0-12.9,5.1-13.9,11.9l-9.7,61.6c-0.6,4.1,0.8,16.3,13.9,16.3c0,0,134.2,0,134.3,0   c13.1,0,14.1-6.3,14.1-14.1c0-1.4-10-63.8-10-63.8C219.4,236.9,213.5,231.8,206.6,231.8z M98.6,293.5l5.2-33.4h90.7l5.2,33.4H98.6z   "/><path d="M307.3,231.8h-9.9c-7.8,0-14.1,6.3-14.1,14.1c0,7.8,6.3,14.1,14.1,14.1h9.9c7.8,0,14.1-6.3,14.1-14.1   C321.4,238.1,315,231.8,307.3,231.8z"/><path d="M365,231.8h-9.9c-7.8,0-14.1,6.3-14.1,14.1c0,7.8,6.3,14.1,14.1,14.1h9.9c7.8,0,14.1-6.3,14.1-14.1   C379.1,238.1,372.8,231.8,365,231.8z"/><path d="M422.8,231.8h-9.9c-7.8,0-14.1,6.3-14.1,14.1c0,7.8,6.3,14.1,14.1,14.1h9.9c7.8,0,14.1-6.3,14.1-14.1   C436.9,238.1,430.6,231.8,422.8,231.8z"/><path d="M307.3,293.5h-9.9c-7.8,0-14.1,6.3-14.1,14.1c0,7.8,6.3,14.1,14.1,14.1h9.9c7.8,0,14.1-6.3,14.1-14.1   C321.4,299.8,315,293.5,307.3,293.5z"/><path d="M365,293.5h-9.9c-7.8,0-14.1,6.3-14.1,14.1c0,7.8,6.3,14.1,14.1,14.1h9.9c7.8,0,14.1-6.3,14.1-14.1   C379.1,299.8,372.8,293.5,365,293.5z"/><path d="M422.8,293.5h-9.9c-7.8,0-14.1,6.3-14.1,14.1c0,7.8,6.3,14.1,14.1,14.1h9.9c7.8,0,14.1-6.3,14.1-14.1   C436.9,299.8,430.6,293.5,422.8,293.5z"/></g><!-- <text x="0" y="527" fill="#000000" font-size="5px" font-weight="bold" font-family="'Helvetica Neue', Helvetica, Arial-Unicode, Arial, Sans-serif">Created by Icon Fair</text><text x="0" y="532" fill="#000000" font-size="5px" font-weight="bold" font-family="'Helvetica Neue', Helvetica, Arial-Unicode, Arial, Sans-serif">from the Noun Project</text> --></svg>