<?xml version="1.0" encoding="UTF-8" standalone="no"?>
<svg
   xmlns:dc="http://purl.org/dc/elements/1.1/"
   xmlns:cc="http://creativecommons.org/ns#"
   xmlns:rdf="http://www.w3.org/1999/02/22-rdf-syntax-ns#"
   xmlns:svg="http://www.w3.org/2000/svg"
   xmlns="http://www.w3.org/2000/svg"
   viewBox="0 0 541.44 147.84"
   height="147.84"
   width="541.44"
   xml:space="preserve"
   id="svg10"
   version="1.1"><metadata
     id="metadata16"><rdf:RDF><cc:Work
         rdf:about=""><dc:format>image/svg+xml</dc:format><dc:type
           rdf:resource="http://purl.org/dc/dcmitype/StillImage" /><dc:title></dc:title></cc:Work></rdf:RDF></metadata><defs
     id="defs14" /><g
     transform="matrix(1.3333333,0,0,-1.3333333,0,147.84)"
     id="g18"><g
       transform="scale(0.1)"
       id="g20"><path
         id="path22"
         style="fill:#f9b41c;fill-opacity:1;fill-rule:nonzero;stroke:none"
         d="m 884.918,694.98 c 0,0 -12.438,10.641 -26.145,-2.812 -13.293,-13.02 -2.804,-26.133 -2.804,-26.133 L 966.625,555.371 855.945,444.699 c 0,0 -10.64,-12.441 2.828,-26.152 13.024,-13.293 26.145,-2.824 26.145,-2.824 L 1024.54,555.352 884.918,694.98" /><path
         id="path24"
         style="fill:#f9b41c;fill-opacity:1;fill-rule:nonzero;stroke:none"
         d="m 288.988,555.422 110.617,110.625 c 0,0 10.622,12.418 -2.832,26.133 -13.011,13.304 -26.125,2.84 -26.125,2.84 L 231.012,555.48 231.059,555.43 231,555.363 370.629,415.84 c 0,0 12.437,-10.625 26.144,2.832 13.317,13.039 2.832,26.164 2.832,26.164 L 288.988,555.422" /><path
         id="path26"
         style="fill:#f9b41c;fill-opacity:1;fill-rule:nonzero;stroke:none"
         d="m 764.453,324.426 c -13.023,13.301 -26.14,2.812 -26.14,2.812 L 627.703,216.641 517.102,327.238 c 0,0 -12.438,10.664 -26.157,-2.812 -13.285,-13.028 -2.82,-26.145 -2.82,-26.145 l 139.531,-139.636 0.059,0.066 0.051,-0.059 139.519,139.629 c 0,0 10.621,12.422 -2.832,26.145" /><path
         id="path28"
         style="fill:#f9b41c;fill-opacity:1;fill-rule:nonzero;stroke:none"
         d="m 767.363,812.508 -139.543,139.644 -0.054,-0.054 -0.051,0.047 -139.531,-139.637 c 0,0 -10.602,-12.41 2.839,-26.137 13.016,-13.312 26.133,-2.808 26.133,-2.808 L 627.773,894.148 738.391,783.539 c 0,0 12.433,-10.609 26.14,2.832 13.297,13.004 2.832,26.137 2.832,26.137" /><path
         id="path30"
         style="fill:#f9b41c;fill-opacity:1;fill-rule:nonzero;stroke:none"
         d="m 864.02,508.859 c 12.601,13.7 9.503,27.754 9.503,27.754 H 646.578 l -0.012,-226.984 c 0,0 14.039,-3.066 27.747,9.531 14.332,13.145 13.207,28.781 13.207,28.781 V 466.613 L 804.234,349.895 c 0,0 12.426,-10.625 26.133,2.82 13.317,13.047 2.84,26.152 2.84,26.152 L 716.426,495.656 H 835.23 c 0,0 15.629,-1.133 28.79,13.203" /><path
         id="path32"
         style="fill:#f9b41c;fill-opacity:1;fill-rule:nonzero;stroke:none"
         d="M 608.969,536.613 H 382.012 c 0,0 -3.086,-14.035 9.508,-27.734 13.148,-14.316 28.777,-13.203 28.777,-13.203 H 538.98 L 422.262,378.945 c 0,0 -10.629,-12.422 2.84,-26.121 13.003,-13.301 26.125,-2.844 26.125,-2.844 L 568.008,466.77 V 347.961 c 0,0 -1.098,-15.637 13.215,-28.801 13.703,-12.578 27.757,-9.492 27.757,-9.492 l -0.011,226.945" /><path
         id="path34"
         style="fill:#f9b41c;fill-opacity:1;fill-rule:nonzero;stroke:none"
         d="m 581.23,791.656 c -14.32,-13.16 -13.203,-28.797 -13.203,-28.797 V 644.191 L 451.305,760.914 c 0,0 -12.418,10.621 -26.153,-2.832 -13.289,-13.031 -2.812,-26.141 -2.812,-26.141 l 116.785,-116.785 -118.809,0.012 c 0,0 -15.628,1.113 -28.796,-13.199 -12.614,-13.715 -9.508,-27.774 -9.508,-27.774 h 226.957 l 0.011,226.977 c 0,0 -14.054,3.078 -27.75,-9.516" /><path
         id="path36"
         style="fill:#f9b41c;fill-opacity:1;fill-rule:nonzero;stroke:none"
         d="m 864.02,601.949 c -13.161,14.321 -28.801,13.207 -28.801,13.207 H 716.555 l 116.722,116.727 c 0,0 10.618,12.414 -2.832,26.16 -13.043,13.277 -26.152,2.793 -26.152,2.793 L 687.52,644.043 687.512,762.867 c 0,0 1.109,15.641 -13.199,28.797 -13.708,12.594 -27.747,9.508 -27.747,9.508 V 574.195 l 226.957,0.008 c 0,0 3.098,14.039 -9.503,27.746" /><path
         id="path38"
         style="fill:#1c5039;fill-opacity:1;fill-rule:nonzero;stroke:none"
         d="m 1195.86,641.172 c -55.84,0 -89.26,35.437 -89.26,91.605 v 143.43 h 31.43 V 736.781 c 0,-40.121 18.04,-66.859 57.83,-66.859 39.12,0 58.85,24.074 58.85,65.863 v 140.422 h 31.41 V 734.449 c 0,-58.172 -34.43,-93.277 -90.26,-93.277" /><path
         id="path40"
         style="fill:#1c5039;fill-opacity:1;fill-rule:nonzero;stroke:none"
         d="M 1535.17,645.516 1408.46,825.051 V 645.516 h -29.09 v 230.691 h 28.08 l 122.36,-172.852 v 172.852 h 29.09 V 645.516 h -23.73" /><path
         id="path42"
         style="fill:#1c5039;fill-opacity:1;fill-rule:nonzero;stroke:none"
         d="m 1659.84,645.516 v 230.691 h 31.42 V 645.516 h -31.42" /><path
         id="path44"
         style="fill:#1c5039;fill-opacity:1;fill-rule:nonzero;stroke:none"
         d="m 1884.49,644.512 h -28.09 l -88.93,227.34 31.42,6.683 71.89,-191.902 70.54,189.574 h 33.09 l -89.92,-231.695" /><path
         id="path46"
         style="fill:#1c5039;fill-opacity:1;fill-rule:nonzero;stroke:none"
         d="m 2043.59,645.516 v 230.691 h 124.37 v -28.762 h -92.95 v -66.867 h 72.22 l 4.68,-28.742 h -76.9 v -77.57 h 96.29 v -28.75 h -127.71" /><path
         id="path48"
         style="fill:#1c5039;fill-opacity:1;fill-rule:nonzero;stroke:none"
         d="m 2319.71,848.445 h -30.08 v -79.234 h 26.75 c 30.42,0 49.81,13.703 49.81,39.793 0,25.07 -15.72,39.441 -46.48,39.441 z m 95.95,-198.254 -31.76,-7.015 -70.54,99.629 h -23.73 v -97.289 h -31.43 v 230.691 h 62.84 c 47.15,0 76.57,-23.414 76.57,-65.535 0,-34.774 -20.39,-55.5 -50.48,-63.856 l 68.53,-96.625" /><path
         id="path50"
         style="fill:#1c5039;fill-opacity:1;fill-rule:nonzero;stroke:none"
         d="m 2543.34,642.832 c -25.08,0 -47.47,6.031 -64.51,15.055 l 4.69,32.093 c 15.69,-10.367 37.43,-19.714 60.49,-19.714 24.08,0 41.13,12.687 41.13,35.101 0,21.051 -9.36,29.746 -44.13,45.453 -43.46,19.727 -59.84,34.11 -59.84,67.203 0,37.114 28.41,60.856 70.21,60.856 22.39,0 39.11,-5.348 52.48,-13.043 l -5.02,-31.43 c -12.7,9.703 -30.09,17.059 -48.48,17.059 -26.4,0 -38.11,-14.059 -38.11,-31.098 0,-17.719 8.7,-26.086 43.8,-42.125 44.8,-20.394 60.18,-35.781 60.18,-70.543 0,-39.777 -29.76,-64.867 -72.89,-64.867" /><path
         id="path52"
         style="fill:#1c5039;fill-opacity:1;fill-rule:nonzero;stroke:none"
         d="m 2703.79,645.516 v 230.691 h 31.42 V 645.516 h -31.42" /><path
         id="path54"
         style="fill:#1c5039;fill-opacity:1;fill-rule:nonzero;stroke:none"
         d="M 2916.07,847.445 V 645.516 h -31.43 v 201.929 h -73.55 v 28.762 h 175.85 l 4.69,-28.762 h -75.56" /><path
         id="path56"
         style="fill:#1c5039;fill-opacity:1;fill-rule:nonzero;stroke:none"
         d="m 3153.74,737.113 v -91.597 h -31.42 v 91.597 l -81.58,134.739 31.43,6.683 66.2,-112.66 64.52,110.332 h 34.77 l -83.92,-139.094" /><path
         id="path58"
         style="fill:#1c5039;fill-opacity:1;fill-rule:nonzero;stroke:none"
         d="m 3521.8,851.797 c -45.81,0 -73.9,-35.442 -73.9,-90.942 0,-55.488 28.42,-90.933 73.9,-90.933 45.79,0 73.87,35.445 73.87,90.933 0,55.5 -28.42,90.942 -73.87,90.942 z m -0.34,-210.625 c -64.87,0 -105.99,48.144 -105.99,119.351 0,71.547 41.8,120.016 106.66,120.016 65.18,0 105.98,-48.144 105.98,-119.351 0,-71.208 -41.47,-120.016 -106.65,-120.016" /><path
         id="path60"
         style="fill:#1c5039;fill-opacity:1;fill-rule:nonzero;stroke:none"
         d="m 3742.4,847.445 v -70.539 h 69.54 l 4.68,-28.75 h -74.22 v -102.64 h -31.41 V 876.207 H 3831 v -28.762 h -88.6" /><path
         id="path62"
         style="fill:#1c5039;fill-opacity:1;fill-rule:nonzero;stroke:none"
         d="m 1163.43,231.875 c -25.08,0 -47.47,6.016 -64.52,15.039 l 4.68,32.102 c 15.71,-10.371 37.45,-19.727 60.51,-19.727 24.07,0 41.12,12.695 41.12,35.098 0,21.062 -9.36,29.754 -44.13,45.468 -43.46,19.715 -59.84,34.11 -59.84,67.196 0,37.121 28.42,60.851 70.21,60.851 22.39,0 39.12,-5.351 52.48,-13.027 l -5.01,-31.437 c -12.7,9.687 -30.1,17.042 -48.48,17.042 -26.4,0 -38.11,-14.035 -38.11,-31.085 0,-17.723 8.7,-26.082 43.8,-42.129 44.79,-20.379 60.18,-35.77 60.18,-70.547 0,-39.774 -29.76,-64.844 -72.89,-64.844" /><path
         id="path64"
         style="fill:#1c5039;fill-opacity:1;fill-rule:nonzero;stroke:none"
         d="m 1391.09,428.789 -36.79,-97.293 h 73.89 z m 74.88,-196.582 -27.08,71.543 h -95.29 l -26.06,-69.207 h -31.77 l 90.27,231.687 h 31.43 l 88.93,-227.332 -30.43,-6.691" /><path
         id="path66"
         style="fill:#1c5039;fill-opacity:1;fill-rule:nonzero;stroke:none"
         d="m 1716.34,234.543 -126.7,179.531 V 234.543 h -29.08 v 230.684 h 28.07 l 122.36,-172.844 v 172.844 h 29.09 V 234.543 h -23.74" /><path
         id="path68"
         style="fill:#1c5039;fill-opacity:1;fill-rule:nonzero;stroke:none"
         d="m 1959.01,436.477 v -70.539 h 69.54 l 4.68,-28.758 h -74.22 V 234.543 h -31.41 v 230.684 h 120.01 v -28.75 h -88.6" /><path
         id="path70"
         style="fill:#1c5039;fill-opacity:1;fill-rule:nonzero;stroke:none"
         d="m 2182.31,437.473 h -30.06 v -79.231 h 26.73 c 30.43,0 49.82,13.711 49.82,39.797 0,25.066 -15.72,39.434 -46.49,39.434 z m 95.96,-198.243 -31.77,-7.023 -70.53,99.621 h -23.72 v -97.285 h -31.44 v 230.684 h 62.84 c 47.15,0 76.56,-23.399 76.56,-65.528 0,-34.777 -20.39,-55.488 -50.47,-63.859 l 68.53,-96.61" /><path
         id="path72"
         style="fill:#1c5039;fill-opacity:1;fill-rule:nonzero;stroke:none"
         d="m 2420.33,428.789 -36.78,-97.293 h 73.89 z m 74.89,-196.582 -27.08,71.543 h -95.28 l -26.08,-69.207 h -31.76 l 90.26,231.687 h 31.43 l 88.93,-227.332 -30.42,-6.691" /><path
         id="path74"
         style="fill:#1c5039;fill-opacity:1;fill-rule:nonzero;stroke:none"
         d="M 2740.59,234.543 2613.88,414.074 V 234.543 h -29.09 v 230.684 h 28.08 l 122.36,-172.844 v 172.844 h 29.09 V 234.543 h -23.73" /><path
         id="path76"
         style="fill:#1c5039;fill-opacity:1;fill-rule:nonzero;stroke:none"
         d="m 2945.49,230.207 c -64.86,0 -106.65,48.133 -106.65,119.344 0,71.543 42.46,120.019 107.32,120.019 27.41,0 47.8,-7.019 65.52,-19.05 l -4.69,-32.102 c -16.71,12.715 -36.42,22.402 -61.16,22.402 -46.83,0 -74.57,-35.449 -74.57,-90.937 0,-55.496 28.09,-90.594 74.57,-90.594 24.74,0 46.46,9.688 64.84,23.066 l 4.69,-29.757 c -17.71,-13.047 -43.47,-22.391 -69.87,-22.391" /><path
         id="path78"
         style="fill:#1c5039;fill-opacity:1;fill-rule:nonzero;stroke:none"
         d="M 3094.56,234.543 V 465.227 H 3126 V 234.543 h -31.44" /><path
         id="path80"
         style="fill:#1c5039;fill-opacity:1;fill-rule:nonzero;stroke:none"
         d="m 3269.74,231.875 c -25.08,0 -47.47,6.016 -64.53,15.039 l 4.68,32.102 c 15.72,-10.371 37.45,-19.727 60.51,-19.727 24.07,0 41.12,12.695 41.12,35.098 0,21.062 -9.35,29.754 -44.13,45.468 -43.45,19.715 -59.84,34.11 -59.84,67.196 0,37.121 28.42,60.851 70.21,60.851 22.4,0 39.12,-5.351 52.48,-13.027 l -5.01,-31.437 c -12.7,9.687 -30.09,17.042 -48.47,17.042 -26.41,0 -38.12,-14.035 -38.12,-31.085 0,-17.723 8.7,-26.082 43.8,-42.129 44.8,-20.379 60.18,-35.77 60.18,-70.547 0,-39.774 -29.76,-64.844 -72.88,-64.844" /><path
         id="path82"
         style="fill:#1c5039;fill-opacity:1;fill-rule:nonzero;stroke:none"
         d="m 3504.06,230.207 c -64.84,0 -106.64,48.133 -106.64,119.344 0,71.543 42.46,120.019 107.32,120.019 27.42,0 47.81,-7.019 65.53,-19.05 l -4.68,-32.102 c -16.71,12.715 -36.44,22.402 -61.19,22.402 -46.8,0 -74.55,-35.449 -74.55,-90.937 0,-55.496 28.09,-90.594 74.55,-90.594 24.75,0 46.49,9.688 64.87,23.066 l 4.68,-29.757 c -17.72,-13.047 -43.47,-22.391 -69.89,-22.391" /><path
         id="path84"
         style="fill:#1c5039;fill-opacity:1;fill-rule:nonzero;stroke:none"
         d="m 3724.36,440.82 c -45.8,0 -73.88,-35.449 -73.88,-90.937 0,-55.496 28.41,-90.938 73.88,-90.938 45.81,0 73.89,35.442 73.89,90.938 0,55.488 -28.42,90.937 -73.89,90.937 z m -0.34,-210.613 c -64.85,0 -105.97,48.133 -105.97,119.344 0,71.543 41.78,120.019 106.64,120.019 65.2,0 105.99,-48.144 105.99,-119.355 0,-71.199 -41.46,-120.008 -106.66,-120.008" /></g></g></svg>
