<svg xmlns="http://www.w3.org/2000/svg" xmlns:xlink="http://www.w3.org/1999/xlink" version="1.1" x="0px" y="0px" viewBox="0 0 343.903 396.72125" style="enable-background:new 0 0 343.903 317.377;" xml:space="preserve"><g><path d="M79.396,112.254c-1.341-0.12-2.718-0.285-4.121-0.503c-11.52-1.791-20.4-6.304-20.146-10.17   c1.524,3.46,10.442,6.119,21.247,6.119c8.154,0,15.247-1.514,18.892-3.743c1.663-1.017,2.609-2.184,2.609-3.423   c0-3.959-9.627-7.168-21.501-7.168c-0.846,0-1.676,0.021-2.497,0.052c-4.116-4.539-10.06-7.39-16.671-7.39   c-12.426,0-22.5,10.074-22.5,22.5c0,8.775,5.025,16.37,12.352,20.08h20.296C73.623,125.436,78.201,119.42,79.396,112.254z"/><path d="M97.208,144.095l10.23-21.124l4.801,2.325l0.871-1.798l-6.6-3.195l-10.459,21.594   C96.462,142.625,96.847,143.358,97.208,144.095z"/><rect x="118.638" y="120.45" transform="matrix(0.436 -0.9 0.9 0.436 -47.1617 182.647)" width="7" height="17"/><rect x="115.58" y="130.258" transform="matrix(0.4359 -0.9 0.9 0.4359 -60.6185 184.1388)" width="2" height="20.334"/><rect x="112.746" y="136.108" transform="matrix(0.4359 -0.9 0.9 0.4359 -67.4818 184.8887)" width="2" height="20.334"/><rect x="109.914" y="141.958" transform="matrix(0.4359 -0.9 0.9 0.4359 -74.3453 185.6393)" width="2" height="20.334"/><path d="M116.795,163.307l0.871-1.8l-16.948-8.209c0.262,0.87,0.507,1.729,0.74,2.581L116.795,163.307z"/><path d="M93.489,184.082c2.011,1.903,5.262,3.4,8.508,3.401c0.065,0,0.131-0.001,0.197-0.002c3.004-0.011,5.635-0.973,7.985-2.279   c2.364-1.328,4.571-3.064,6.919-5.26c1.389-1.303,2.207-2.984,2.449-4.734l19.063-39.361l-6.6-3.196l-0.871,1.799l4.8,2.325   l-16.779,34.646c-0.358-1.006-0.921-1.958-1.699-2.787c-3.023-3.221-8.086-3.384-11.308-0.36c-0.449,0.422-0.864,0.788-1.258,1.122   l-2.341-1.134c-0.626-1.952-1.298-4.437-1.974-7.125c-0.001-0.003-0.001-0.007-0.002-0.01c-1.5-5.679-3.088-12.294-6.565-18.378   c-1.756-3.03-4.088-6.002-7.389-8.279c-2.491-1.739-5.538-2.935-8.792-3.398c-0.529-0.114-1.078-0.179-1.643-0.179h-0.334   c-0.388-0.019-0.775-0.04-1.167-0.037c-0.248,0-0.492,0.015-0.734,0.037h-35.83h-0.569c-0.416,0-0.821,0.042-1.219,0.105   c-0.475-0.088-0.962-0.14-1.462-0.14v-0.002c-4.393,0.04-8.198,0.713-11.063,0.679c-1.541,0.005-2.707-0.17-3.423-0.414   c-1.046-0.455-1.358-0.477-2.394-2.319c-0.959-1.854-2.016-5.924-1.994-12.827c0-3.943,0.317-8.785,1.057-14.61   c0.556-4.384-2.546-8.387-6.929-8.943c-4.382-0.556-8.387,2.546-8.941,6.929C0.381,105.701,0.003,111.18,0,115.976   c0.007,5.584,0.509,10.253,1.585,14.32c1.545,6.043,4.792,11.032,9.277,13.875c4.46,2.852,9.146,3.358,12.951,3.364   c2.188-0.016,4.221-0.174,6.015-0.333v157.812c0,6.829,5.537,12.362,12.363,12.362c6.828,0,12.365-5.533,12.365-12.362v-90.272   h4.635v90.272c0,6.829,5.537,12.362,12.363,12.362c6.828,0,12.365-5.533,12.365-12.362V160.727   c0.398,1.432,0.784,2.907,1.165,4.395c0.543,2.067,1.063,4.136,1.66,6.183c0.659,2.257,1.415,4.486,2.418,6.655   C90.15,180.025,91.375,182.144,93.489,184.082z"/><path d="M325.311,0H189.319v34.111c1.84,0.153,3.63,0.517,5.361,1.037V5.358h108.735l-89.569,22.85v262.508l0.453-0.115   l92.715-23.652h36.889v-6h-18.592V0z M223.712,203.559V152.65l8.039-2.68v50.908L223.712,203.559z"/><path d="M207.155,84.16l-30.912,8.768c-0.109,0.03-0.215,0.072-0.322,0.109c-1.729,0.509-4.52,1.701-7.344,4.301   c-4.447,4.033-8.436,11.228-9.518,22.282c-1.121,11.106,0.322,26.295,6.494,48.1c1.598,5.633,3.518,11.708,5.801,18.269   c1.4,4.023,5.688,6.215,9.732,5.067c0.152-0.043,0.303-0.091,0.453-0.143c4.174-1.453,6.379-6.012,4.926-10.186   c-2.191-6.293-4.014-12.07-5.52-17.376c-6.643-23.29-6.957-37.342-5.557-45.116l31.766,111.99V84.16z"/><path d="M193.274,82.174c6.255-1.774,11.133-6.027,13.881-11.39V50.257c-4.788-9.359-15.66-14.353-26.162-11.375   c-11.953,3.391-18.896,15.83-15.506,27.786C168.88,78.623,181.319,85.564,193.274,82.174z"/><path d="M207.155,257.148h-12.475v-56.245l-4.141-14.598c-0.268,1.048-0.688,2.047-1.221,2.983v71.658H92.124v6h115.031V257.148z"/><path d="M120.959,214.242h-11.385v11.278h24.77v-1v-8.278h11.387v-1v-10.277h-24.771V214.242z M132.344,223.519h-20.77v-7.277   h9.385v0.001h11.385V223.519z M122.958,206.966h20.772v7.275h-20.772V206.966z"/><path d="M166.344,26.522v-8.277h11.387v-0.999V6.968h-24.771v9.277h-11.383v11.279h24.767V26.522z M154.958,8.967h20.773v7.278   h-9.388h-11.386V8.967z M143.574,25.523v-7.28h9.385v0.002h11.386v7.278H143.574z"/></g><text x="0" y="332.377" fill="#000000" font-size="5px" font-weight="bold" font-family="'Helvetica Neue', Helvetica, Arial-Unicode, Arial, Sans-serif">Created by Gan Khoon Lay</text><text x="0" y="337.377" fill="#000000" font-size="5px" font-weight="bold" font-family="'Helvetica Neue', Helvetica, Arial-Unicode, Arial, Sans-serif">from the Noun Project</text></svg>