<svg xmlns="http://www.w3.org/2000/svg" xmlns:xlink="http://www.w3.org/1999/xlink" version="1.1" x="0px" y="0px" viewBox="0 0 100 125" enable-background="new 0 0 100 100" xml:space="preserve"><g><path d="M90.575,32.214c9.023-9.024,6.238-25.976,6.115-26.692l-0.17-0.996l-0.996-0.171c-0.718-0.123-17.668-2.908-26.692,6.116   c-1.709,1.709-3.222,3.557-4.507,5.506c-3.886-0.807-8.106-1.247-12.573-1.321v-3.353h-2.693v3.353   c-4.467,0.074-8.688,0.515-12.575,1.321c-1.284-1.947-2.797-3.796-4.506-5.505C22.954,1.447,6.002,4.231,5.286,4.355L4.29,4.525   L4.119,5.521C3.996,6.239,1.211,23.19,10.235,32.213c0.417,0.417,0.848,0.826,1.302,1.236c-1.909,4.104-2.875,8.817-2.875,14.027   c0,1.95,0.138,3.868,0.397,5.747c-3.354,1.153-5.897,2.505-7.478,3.345l1.34,2.523c1.42-0.755,3.676-1.952,6.636-3.001   c0.346,1.641,0.786,3.246,1.319,4.81c-2.418,0.933-4.849,2.095-7.254,3.506l1.447,2.465c1.957-1.148,4.303-2.251,6.864-3.197   c6.172,14.604,20.427,24.99,37.126,25.521v0.572h2.693v-0.572c22.396-0.713,40.397-19.152,40.397-41.719   c0-5.211-0.967-9.924-2.876-14.027C89.727,33.041,90.161,32.627,90.575,32.214z M89.291,47.477c0,20.99-16.72,38.138-37.539,38.852   v-1.176h-2.693v1.176c-15.442-0.529-28.626-10.096-34.408-23.571c8.895-2.732,19.506-3.351,25.64,2.103l1.899-2.137   c-5.468-4.86-16.676-6.565-28.607-2.773c-0.521-1.533-0.957-3.104-1.285-4.717c7.365-2.006,17.949-2.479,30.411,4.821l1.444-2.466   C30.95,49.855,19.71,50.28,11.838,52.376c-0.203-1.606-0.319-3.24-0.319-4.899c0-5.182,1.027-9.8,3.052-13.726l0.52-1.007   l-0.863-0.735c-0.716-0.61-1.361-1.204-1.972-1.815C5.458,23.395,6.365,10.719,6.796,7.032c3.687-0.431,16.363-1.339,23.161,5.459   c1.802,1.802,3.363,3.768,4.641,5.842l0.536,0.87l0.997-0.226c4.331-0.982,9.134-1.479,14.274-1.479s9.943,0.498,14.273,1.479   l0.997,0.226l0.535-0.87c1.279-2.075,2.841-4.041,4.642-5.842c6.8-6.799,19.477-5.892,23.162-5.459   c0.436,3.683,1.353,16.348-5.46,23.161c-0.609,0.61-1.272,1.221-1.972,1.815l-0.864,0.735l0.521,1.008   C88.265,37.676,89.291,42.293,89.291,47.477z"/><polygon points="60.254,48.097 62.273,50.118 68.019,44.373 73.764,50.118 75.784,48.097 70.039,42.352 75.784,36.607    73.765,34.586 68.019,40.332 62.273,34.586 60.253,36.607 65.999,42.352  "/><path d="M79.906,55.836l-4.121-4.121l-4.478,4.478c-1.971-1.372-6.449-2.966-14.229,1.9l1.515,2.423   c8.451-5.285,11.518-1.649,11.628-1.513l0.987,1.33l4.577-4.577l4.121,4.121l4.764-4.764l-2.021-2.021L79.906,55.836z"/><path d="M72.265,62.485c-1.418-0.887-3.33-1.254-4.258-1.389c-3.989-0.572-7.827,0.26-10.264,2.228l1.795,2.223   c2.154-1.74,5.576-1.979,8.062-1.621c2.22,0.319,3.357,1.029,3.561,1.323l0.975,1.407l4.31-4.309l2.855,2.856l2.021-2.021   l-4.877-4.877L72.265,62.485z"/><rect x="49.059" y="94.384" width="2.693" height="4.615"/><rect x="49.059" y="2.071" width="2.693" height="4.616"/><rect x="49.059" y="20.534" width="2.693" height="4.616"/><rect x="49.059" y="75.921" width="2.693" height="4.615"/><rect x="49.059" y="38.996" width="2.693" height="4.616"/><rect x="49.059" y="29.765" width="2.693" height="4.615"/><path d="M35.694,35.163c-4.627-1.472-9.278,0.163-10.388,3.65c-1.108,3.488,1.743,7.508,6.37,8.979   c4.628,1.472,9.278-0.163,10.388-3.65C43.173,40.654,40.321,36.634,35.694,35.163z M33.686,46.372c0,0-1.958-2.191-1.958-4.895   c0-2.703,1.958-4.894,1.958-4.894s1.958,2.191,1.958,4.894C35.643,44.18,33.686,46.372,33.686,46.372z"/><path d="M69.746,68.008c-3.142-1.424-7.29,0.62-11.305,2.594c-1.847,0.908-5.285,2.598-6.02,2.141   c-0.064-0.04-0.247-0.35-0.247-1.218c0-5.706-0.125-10.224-0.224-12.919c1.239-0.336,2.418-1.074,3.378-2.229   c2.472-2.974,0.842-5.453-3.577-5.864v-2.285h-2.693v2.285c-4.419,0.411-6.048,2.89-3.578,5.864   c0.99,1.192,2.212,1.943,3.495,2.264v11.572c0,2.645-1.848,3.45-3.398,3.66c-3.797,0.518-10.008-2.231-11.805-8.729l-2.754,0.763   c1.941,7.016,8.25,10.89,13.562,10.89c0.469,0,0.932-0.03,1.382-0.091c1.805-0.245,3.269-0.985,4.283-2.102   c0.192,0.221,0.415,0.408,0.666,0.565c1.316,0.82,3.042,0.511,5.04-0.273c0.318,0.676,0.786,1.669,1.481,3.147   c0.829,1.762,2.309,2.856,4.06,3.003c0.13,0.011,0.259,0.017,0.389,0.017c1.579,0,3.132-0.797,4.036-2.099   c1.003-1.443,1.104-3.281,0.274-5.043c-0.645-1.368-1.094-2.323-1.409-2.994c1.509-0.507,2.87-0.729,3.784-0.315   c0.242,0.11,0.979,0.444,1.423,2.091l2.759-0.742C72.222,70.002,71.212,68.673,69.746,68.008z M63.605,75.137   c0.394,0.837,0.382,1.596-0.034,2.195c-0.4,0.576-1.142,0.925-1.84,0.865c-0.728-0.061-1.319-0.535-1.714-1.372   c-0.68-1.444-1.141-2.425-1.458-3.101c0.375-0.182,0.756-0.368,1.144-0.559c0.775-0.382,1.599-0.787,2.427-1.166   C62.448,72.677,62.914,73.667,63.605,75.137z"/></g><text x="0" y="115" fill="#000000" font-size="5px" font-weight="bold" font-family="'Helvetica Neue', Helvetica, Arial-Unicode, Arial, Sans-serif">Created by Marco Petrucci</text><text x="0" y="120" fill="#000000" font-size="5px" font-weight="bold" font-family="'Helvetica Neue', Helvetica, Arial-Unicode, Arial, Sans-serif">from the Noun Project</text></svg>