<svg xmlns="http://www.w3.org/2000/svg" xmlns:xlink="http://www.w3.org/1999/xlink" version="1.1" x="0px" y="0px" viewBox="0 0 100 125" enable-background="new 0 0 100 100" xml:space="preserve"><path d="M92.43,24.044c-0.127-0.77-0.818-1.319-1.603-1.25c-0.222,0.018-0.422,0.094-0.604,0.197  c-1.719-3.107-4.859-5.137-8.238-5.137c-1.125,0-2.205,0.208-3.221,0.563c-0.091-6.143-5.108-11.115-11.272-11.115  c-3.477,0-6.644,1.752-8.731,4.439c-1.594-3.317-5.08-6.33-9.069-6.33c-3.967,0-7.471,2.366-8.969,6.03  c-1.044-0.445-2.165-0.704-3.329-0.704c-3.727,0-7.027,2.099-8.658,5.388c-2.07-1.695-4.811-2.706-7.909-2.706  c-6.354,0-11.542,5.026-11.834,11.31c-0.767,0.072-1.361,0.711-1.361,1.489v10.109c0,0.278,0.077,0.55,0.223,0.786l1.349,2.193  l6.148,37.823c0.094,1.188,1.19,10.906,11.939,13.296c1.271,0.54,9.948,3.995,23.84,3.995c4.269,0,8.596-0.332,12.961-0.989v0.003  c0.033-0.004,0.062-0.012,0.095-0.016c0.074-0.011,0.148-0.025,0.223-0.037c0.21-0.031,0.421-0.062,0.619-0.105  c4.146-0.668,8.324-1.62,12.521-2.878c0.34-0.126,8.339-3.216,9.248-15.527l3.95-33.856c0.007-0.058,0.01-0.116,0.01-0.174v-1.94  l1.565-3.548c0.084-0.191,0.128-0.397,0.128-0.605v-9.755C92.492,24.48,92.446,24.14,92.43,24.044z M12.022,38.276  c-0.035-0.098-0.053-0.201-0.108-0.29l-1.282-2.084v-5.451c5.042,3.63,15.002,5.996,18.69,6.778  c0.057,0.012,0.113,0.021,0.171,0.026c7.34,0.692,14.512,1.043,21.317,1.043c16.433,0,25.251-2.005,25.613-2.089  c6.823-1.558,10.763-3.736,13.027-5.819v4.04l-1.565,3.548c-0.011,0.025-0.016,0.052-0.025,0.078  C51.095,52.822,17.994,40.722,12.022,38.276z M32.25,85.594l-5.5-40.837c6.219,1.338,13.904,2.431,22.558,2.502v44.131  c-6.366-0.149-11.506-1.045-15.099-1.931C32.938,88.459,32.362,86.348,32.25,85.594z M35.337,24.446  c5.118,0,9.282,4.164,9.282,9.283c0,0.492-0.04,0.979-0.116,1.46c-4.761-0.146-9.657-0.443-14.643-0.912  c-1.241-0.265-2.496-0.566-3.74-0.891C26.661,28.512,30.734,24.446,35.337,24.446z M50.809,19.156  c5.653,0,10.252,4.601,10.252,10.256c0,2.05-0.599,4.002-1.727,5.688c-2.563,0.122-5.402,0.198-8.524,0.198  c-1.414,0-2.853-0.024-4.298-0.055c0.067-0.5,0.107-1.005,0.107-1.515c0-3.808-1.901-7.175-4.799-9.219  C43.624,21.204,47.017,19.156,50.809,19.156z M76.772,31.805c0,0.422-0.03,0.841-0.085,1.256c-0.307,0.076-0.616,0.151-0.938,0.225  c-0.064,0.015-4.947,1.117-14.022,1.684c0.874-1.709,1.333-3.596,1.333-5.557c0-2.014-0.497-3.911-1.361-5.589  c1.59-1.081,3.487-1.669,5.426-1.669C72.444,22.154,76.772,26.483,76.772,31.805z M89.208,25.702l0.012-0.003  c-0.617,1.567-2.803,4.545-10.49,6.812c0.014-0.235,0.043-0.469,0.043-0.706c0-3.198-1.296-6.098-3.389-8.205  c1.373-2.308,3.846-3.746,6.601-3.746C85.211,19.854,88.182,22.258,89.208,25.702z M67.491,9.302c5.118,0,9.281,4.165,9.281,9.284  c0,0.276-0.019,0.548-0.042,0.819c-1.147,0.74-2.126,1.727-2.881,2.904c-1.901-1.352-4.219-2.155-6.725-2.155  c-2.313,0-4.578,0.697-6.485,1.975c-0.722-0.972-1.581-1.832-2.553-2.553c0.072-0.139,0.123-0.289,0.123-0.456  C58.21,13.89,62.547,9.302,67.491,9.302z M42.532,12.28c1.168-2.958,3.979-4.869,7.159-4.869c3.604,0,6.823,3.323,7.737,6.401  l0.046-0.014c-0.704,1.418-1.136,2.992-1.229,4.646c-1.641-0.817-3.482-1.289-5.436-1.289c-1.396,0-2.746,0.236-4.013,0.671  c-0.883-2.277-2.695-4.501-4.991-5.834L42.532,12.28z M37.393,12.737c3.408,0,6.468,2.968,7.566,5.892  c-2.027,1.097-3.728,2.77-4.885,4.874c-1.442-0.671-3.044-1.057-4.737-1.057c-0.953,0-1.883,0.156-2.781,0.419  c-0.295-1.997-1.11-3.79-2.332-5.264l0.01,0.004C31.402,14.648,34.212,12.737,37.393,12.737z M20.827,15.419  c5.386,0,9.377,3.404,9.82,8.214c-3.363,1.743-5.908,5.233-6.465,9.223c-6.021-1.721-11.42-3.97-13.054-5.834  c-0.102-0.57-0.163-1.152-0.163-1.739C10.965,19.844,15.389,15.419,20.827,15.419z M28.067,87.524  c-9.221-1.977-9.709-10.282-9.726-10.629c-0.002-0.062-0.009-0.122-0.019-0.183l-5.871-36.118c2.239,0.858,6.083,2.19,11.173,3.442  l5.653,41.968c0.028,0.195,0.172,1.091,0.578,2.182c-0.952-0.331-1.472-0.557-1.493-0.565  C28.269,87.579,28.168,87.546,28.067,87.524z M52.309,91.398V47.246c6.43-0.126,13.339-0.846,20.532-2.443l-5.017,42.309  c-0.009,0.109-0.235,2.536-3.399,3.228c-0.16,0.025-0.319,0.057-0.479,0.081c-0.073,0.012-0.139,0.027-0.215,0.036l0,0  C59.891,91.037,56.078,91.343,52.309,91.398z M83.811,74.587c-0.743,10.056-6.683,12.743-7.272,12.985  c-2.075,0.62-4.15,1.162-6.222,1.634c0.301-0.674,0.455-1.311,0.492-1.803l5.141-43.341c3.872-0.989,7.817-2.243,11.808-3.804v0.496  L83.811,74.587z"/><!-- <text x="0" y="115" fill="#000000" font-size="5px" font-weight="bold" font-family="'Helvetica Neue', Helvetica, Arial-Unicode, Arial, Sans-serif">Created by Tracy Hudak</text><text x="0" y="120" fill="#000000" font-size="5px" font-weight="bold" font-family="'Helvetica Neue', Helvetica, Arial-Unicode, Arial, Sans-serif">from the Noun Project</text> --></svg>