<svg xmlns="http://www.w3.org/2000/svg" xmlns:xlink="http://www.w3.org/1999/xlink" version="1.1" x="0px" y="0px" viewBox="0 0 156.867 296.47875" style="enable-background:new 0 0 156.867 237.183;" xml:space="preserve"><g><path d="M133.601,53.409c-3.07,2.872-6.144,5.312-9.176,7.397h20.318V44.863h-8.042C137.075,47.937,136.035,51.143,133.601,53.409z   "/><path d="M108.869,68.848v41.016c0,2.209,1.791,4,4,4h39.998c2.209,0,4-1.791,4-4V66.807c0-2.209-1.791-4-4-4h-31.512   C117.025,65.473,112.818,67.428,108.869,68.848z M132.868,72.586c8.698,0,15.75,7.052,15.75,15.75c0,8.698-7.052,15.75-15.75,15.75   c-8.698,0-15.75-7.052-15.75-15.75C117.118,79.638,124.17,72.586,132.868,72.586z"/><polygon points="134.094,77.489 131.76,77.489 131.76,87.155 122.094,87.155 122.094,89.489 134.094,89.489  "/><circle cx="50.576" cy="22.5" r="22.5"/><path d="M4,192.51h10c2.209,0,4-1.791,4-4v-33c0-2.209-1.791-4-4-4h-2.25v-5.315c3.31-1.137,5.601-4.363,5.386-8.026   c-0.391-6.652-0.569-12.708-0.569-18.223c-0.033-24.213,3.496-37.817,6.965-44.917v149.79c0,6.83,5.537,12.363,12.363,12.363   c6.828,0,12.365-5.533,12.365-12.363v-90.271h4.635v90.271c0,6.83,5.537,12.363,12.363,12.363c6.828,0,12.365-5.533,12.365-12.363   V71.383v-2.042c3.109,0.63,6.828,1.104,11.066,1.111c0.092,0.001,0.187,0.001,0.279,0.001c11.99,0,27.961-4.188,43.27-18.509   c3.235-3.009,3.42-8.071,0.414-11.306c-3.009-3.235-8.07-3.42-11.307-0.411c-12.653,11.677-24.028,14.159-32.656,14.225   c-4.434,0.002-8.119-0.736-10.619-1.45c-1.251-0.355-2.202-0.704-2.796-0.94c-0.298-0.119-0.507-0.211-0.616-0.261   c-0.027-0.013-0.048-0.023-0.063-0.029c-0.022-0.011-0.029-0.015-0.029-0.015l-0.001,0.001c-0.813-0.399-1.66-0.639-2.512-0.748   c-0.686-0.199-1.408-0.312-2.158-0.312H65.4H31.26c-0.853,0-1.67,0.143-2.437,0.398C27.127,51.339,25,51.89,22.68,53.06   c-5.378,2.668-11.176,8.502-15.234,18.841C3.338,82.28,0.58,97.288,0.568,119.946c0,5.857,0.188,12.224,0.594,19.158   c0.189,3.224,2.264,5.886,5.088,6.986v5.419H4c-2.209,0-4,1.791-4,4v33C0,190.719,1.791,192.51,4,192.51z"/></g><!-- <text x="0" y="252.183" fill="#000000" font-size="5px" font-weight="bold" font-family="'Helvetica Neue', Helvetica, Arial-Unicode, Arial, Sans-serif">Created by Gan Khoon Lay</text><text x="0" y="257.183" fill="#000000" font-size="5px" font-weight="bold" font-family="'Helvetica Neue', Helvetica, Arial-Unicode, Arial, Sans-serif">from the Noun Project</text> --></svg>